<svg xmlns="http://www.w3.org/2000/svg" version="1.0" width="550" height="550" preserveAspectRatio="xMidYMid meet" style=""><rect id="backgroundrect" width="100%" height="100%" x="0" y="0" fill="none" stroke="none" style="" class=""/>


<g class="currentLayer" style=""><title>Layer 1</title>









<g class="" id="svg_15"><path d="M95.4792227742079,98.9880995137455 c-5.689466738664871,5.409434131473332 1.0837079502218803,14.940341886926346 36.304216332432986,50.23045979225237 c21.132305029326666,21.12255232289587 40.09719415820956,38.381223123310804 41.99368307109785,38.381223123310804 c1.89648891288829,0 4.876685775998462,-2.3183289134885707 6.502247701331282,-5.151842029974603 c2.438342887999231,-4.379065725478412 -1.89648891288829,-9.788499856951749 -35.76236235732203,-44.30584145778158 c-36.304216332432986,-37.09326261581713 -44.432025959097075,-43.533065153285385 -49.03778474754006,-39.153999427806994 z" id="svg_3" fill="#616161" class="" fill-opacity="1"/><path d="M366.6656574603918,362.5474018437626 c-5.689466738664871,5.409434131473332 1.0837079502218803,14.940341886926346 36.304216332432986,50.23045979225237 c21.132305029326666,21.12255232289587 40.09719415820956,38.381223123310804 41.99368307109785,38.381223123310804 c1.89648891288829,0 4.876685775998462,-2.3183289134885707 6.502247701331282,-5.151842029974603 c2.438342887999231,-4.379065725478412 -1.89648891288829,-9.788499856951749 -35.76236235732203,-44.30584145778158 c-36.304216332432986,-37.09326261581713 -44.432025959097075,-43.533065153285385 -49.03778474754006,-39.153999427806994 z" fill="#616161" class="" fill-opacity="1" id="svg_20" transform="rotate(-179.6280975341797 408.45257568359375,406.2539367675782) "/><path d="M90.90299296349315,361.36096089909097 c-5.689466738664871,5.409434131473332 1.0837079502218803,14.940341886926346 36.304216332432986,50.23045979225237 c21.132305029326666,21.12255232289587 40.09719415820956,38.381223123310804 41.99368307109785,38.381223123310804 c1.89648891288829,0 4.876685775998462,-2.3183289134885707 6.502247701331282,-5.151842029974603 c2.438342887999231,-4.379065725478412 -1.89648891288829,-9.788499856951749 -35.76236235732203,-44.30584145778158 c-36.304216332432986,-37.09326261581713 -44.432025959097075,-43.533065153285385 -49.03778474754006,-39.153999427806994 z" fill="#616161" class="" fill-opacity="1" transform="rotate(-88.03925323486328 132.6898651123047,405.0675048828125) " id="svg_21"/><path d="M232.4283732768896,414.75079303810617 c-5.689466738664871,5.409434131473332 1.0837079502218803,14.940341886926346 36.304216332432986,50.23045979225237 c21.132305029326666,21.12255232289587 40.09719415820956,38.381223123310804 41.99368307109785,38.381223123310804 c1.89648891288829,0 4.876685775998462,-2.3183289134885707 6.502247701331282,-5.151842029974603 c2.438342887999231,-4.379065725478412 -1.89648891288829,-9.788499856951749 -35.76236235732203,-44.30584145778158 c-36.304216332432986,-37.09326261581713 -44.432025959097075,-43.533065153285385 -49.03778474754006,-39.153999427806994 z" fill="#616161" class="" fill-opacity="1" transform="rotate(-137.2422332763672 274.2152404785157,458.4573059082032) " id="svg_22"/><path d="M378.1910775300863,102.03894752094764 c-5.689466738664871,5.409434131473332 1.0837079502218803,14.940341886926346 36.304216332432986,50.23045979225237 c21.132305029326666,21.12255232289587 40.09719415820956,38.381223123310804 41.99368307109785,38.381223123310804 c1.89648891288829,0 4.876685775998462,-2.3183289134885707 6.502247701331282,-5.151842029974603 c2.438342887999231,-4.379065725478412 -1.89648891288829,-9.788499856951749 -35.76236235732203,-44.30584145778158 c-36.304216332432986,-37.09326261581713 -44.432025959097075,-43.533065153285385 -49.03778474754006,-39.153999427806994 z" fill="#616161" class="" fill-opacity="1" id="svg_19" transform="rotate(89.80561065673828 419.9779663085937,145.74542236328122) "/><path d="M235.81819927662642,46.95420545170326 c-5.689466738664871,5.409434131473332 1.0837079502218803,14.940341886926346 36.304216332432986,50.23045979225237 c21.132305029326666,21.12255232289587 40.09719415820956,38.381223123310804 41.99368307109785,38.381223123310804 c1.89648891288829,0 4.876685775998462,-2.3183289134885707 6.502247701331282,-5.151842029974603 c2.438342887999231,-4.379065725478412 -1.89648891288829,-9.788499856951749 -35.76236235732203,-44.30584145778158 c-36.304216332432986,-37.09326261581713 -44.432025959097075,-43.533065153285385 -49.03778474754006,-39.153999427806994 z" fill="#616161" class="" fill-opacity="1" id="svg_18" transform="rotate(44.28673553466797 277.6051025390625,90.66067504882814) "/><path d="M416.83514386385707,229.66605704853555 c-5.689466738664871,5.409434131473332 1.0837079502218803,14.940341886926346 36.304216332432986,50.23045979225237 c21.132305029326666,21.12255232289587 40.09719415820956,38.381223123310804 41.99368307109785,38.381223123310804 c1.89648891288829,0 4.876685775998462,-2.3183289134885707 6.502247701331282,-5.151842029974603 c2.438342887999231,-4.379065725478412 -1.89648891288829,-9.788499856951749 -35.76236235732203,-44.30584145778158 c-36.304216332432986,-37.09326261581713 -44.432025959097075,-43.533065153285385 -49.03778474754006,-39.153999427806994 z" fill="#616161" class="" fill-opacity="1" transform="rotate(132.44825744628906 458.6220397949219,273.3725280761719) " id="svg_1"/><path d="M44.46228009432582,231.86944860050698 c-5.689466738664871,5.409434131473332 1.0837079502218803,14.940341886926346 36.304216332432986,50.23045979225237 c21.132305029326666,21.12255232289587 40.09719415820956,38.381223123310804 41.99368307109785,38.381223123310804 c1.89648891288829,0 4.876685775998462,-2.3183289134885707 6.502247701331282,-5.151842029974603 c2.438342887999231,-4.379065725478412 -1.89648891288829,-9.788499856951749 -35.76236235732203,-44.30584145778158 c-36.304216332432986,-37.09326261581713 -44.432025959097075,-43.533065153285385 -49.03778474754006,-39.153999427806994 z" fill="#616161" class="" fill-opacity="1" transform="rotate(-45.9354248046875 86.24915313720695,275.57592773437494) " id="svg_2"/><path d="M242.83137223736531,166.45084994037123 c-38.973602982799314,9.92192228794448 -71.98403173872222,41.30759483144232 -82.20661612765319,77.95796083384946 c-4.046439653951841,14.376662907021592 -4.046439653951841,42.52252409119062 0.21297050810272866,57.50665162808637 c4.472380670157299,17.211497846434302 16.398729123910098,36.042901372533 30.667753166792906,49.40712322976434 c37.48280942608021,35.2329485327008 95.19781712191964,41.51008304140037 141.62538788831446,15.38910395681185 c15.120906075293727,-8.302016608280073 34.07528129643656,-26.930931924420726 42.16816060434024,-41.10510662148427 c7.240997275492767,-12.756757227357186 14.26902404288281,-38.27027168207156 14.26902404288281,-51.836981749260936 c-0.21297050810272866,-50.21707606959653 -37.05686840987476,-95.16945868028375 -88.38276086263232,-107.52123948772486 c-15.75981759960191,-3.8472759892029624 -43.23301314485389,-3.6447877792449095 -58.353919220147624,0.2024882099580507 z" id="svg_5" fill="#616161" class="" fill-opacity="1"/></g></g></svg>