<svg xmlns="http://www.w3.org/2000/svg" version="1.0" width="325.000000" height="324.000000" preserveAspectRatio="xMidYMid meet"><rect id="backgroundrect" width="100%" height="100%" x="0" y="0" fill="none" stroke="none"/>


<g class="currentLayer" style=""><title>Layer 1</title><g transform="translate(0,324) scale(0.10000000149011612,-0.10000000149011612) " fill="#616161" stroke="none" id="svg_1" class="" fill-opacity="1">
<path d="M1567 2764 c-4 -4 -7 -85 -7 -180 0 -167 1 -173 21 -179 12 -4 25 -3 30 2 5 5 8 86 7 184 -3 167 -4 174 -23 177 -12 2 -24 0 -28 -4z" id="svg_2" fill="#616161"/>
<path d="M857 2474 c-21 -21 4 -58 134 -195 78 -82 148 -149 155 -149 7 0 18 9 24 20 9 17 -7 38 -132 172 -134 144 -164 169 -181 152z" id="svg_3" fill="#616161"/>
<path d="M2324 2433 c-9 -16 -50 -68 -89 -118 -39 -49 -75 -96 -79 -103 -9 -15 10 -42 30 -42 23 0 204 234 204 264 0 37 -41 36 -66 -1z" id="svg_4" fill="#616161"/>
<path d="M1491 2134 c-183 -49 -338 -204 -386 -385 -19 -71 -19 -210 1 -284 21 -85 77 -178 144 -244 176 -174 447 -205 665 -76 71 41 160 133 198 203 34 63 67 189 67 256 -1 248 -174 470 -415 531 -74 19 -203 18 -274 -1z" id="svg_5" fill="#616161"/>
<path d="M507 1643 c-13 -13 -7 -42 11 -50 9 -4 88 -7 175 -5 127 2 159 6 164 18 3 8 0 21 -7 29 -10 12 -43 15 -175 15 -89 0 -165 -3 -168 -7z" id="svg_6" fill="#616161"/>
<path d="M2397 1644 c-15 -15 -6 -44 16 -49 12 -3 101 -4 197 -3 l175 3 0 25 0 25 -191 3 c-104 1 -193 -1 -197 -4z" id="svg_7" fill="#616161"/>
<path d="M2157 1043 c-21 -20 7 -55 153 -190 88 -81 167 -151 176 -156 17 -9 44 7 44 27 0 16 -335 326 -353 326 -7 0 -17 -3 -20 -7z" id="svg_8" fill="#616161"/>
<path d="M1134 993 c-90 -97 -214 -254 -214 -271 0 -30 27 -34 53 -9 14 12 66 72 118 132 52 61 100 115 107 121 21 15 10 48 -15 52 -15 2 -32 -7 -49 -25z" id="svg_9" fill="#616161"/>
<path d="M1606 784 c-3 -9 -6 -93 -6 -189 0 -145 3 -175 16 -186 11 -9 20 -10 32 -2 15 9 17 34 20 179 1 93 0 179 -3 192 -6 26 -49 31 -59 6z" id="svg_10" fill="#616161"/>
</g></g></svg>