<svg xmlns="http://www.w3.org/2000/svg" version="1.0" width="500" height="500" preserveAspectRatio="xMidYMid meet"><rect id="backgroundrect" width="100%" height="100%" x="0" y="0" fill="none" stroke="none" style="" class=""/>


<g class="currentLayer" style=""><title>Layer 1</title>
<path d="M243.3391649737324,13.106442940465854 c-0.8518820324109141,0.809952839832202 -1.4907935567190995,17.211497846434302 -1.4907935567190995,36.4478777924491 c0,33.815531062994445 0.2129705081027286,35.030460322742755 4.472380670157299,36.24538958249105 c2.555646097232743,0.809952839832202 5.3242627025682125,0.6074646298741517 6.389115243081855,-0.4049764199161011 c1.0648525405136424,-1.0124410497902532 1.703764064821828,-17.41398605639235 1.4907935567190995,-37.257830632281305 c-0.638911524308186,-33.815531062994445 -0.8518820324109141,-35.2329485327008 -4.898321686362755,-35.84041316257495 c-2.555646097232743,-0.4049764199161011 -5.111292194465485,0 -5.963174226876398,0.809952839832202 z" id="svg_2" fill="#616161" class="selected" fill-opacity="1"/>
<path d="M82.80807129232834,68.43819347742445 c-4.472380670157299,4.252252409119062 0.851882032410914,11.744316177566931 28.53804808576562,39.485200941819855 c16.611699632012826,16.604033216560147 31.51963519920382,30.17074328374954 33.010428755922916,30.17074328374954 c1.4907935567190995,0 3.833469145849114,-1.8223938896224547 5.111292194465485,-4.049764199161012 c1.916734572924557,-3.4422995692868597 -1.4907935567190995,-7.694551978405925 -28.112107069560157,-34.8279721127847 c-28.53804808576562,-29.158302233959276 -34.92716332884747,-34.22050748291054 -38.54766196659385,-30.7782079136237 z" id="svg_3" fill="#616161" class="selected" fill-opacity="1"/>
<path d="M395.2358066790311,76.74021008570472 c-1.916734572924557,3.2398113593288085 -10.648525405136425,13.769198277147439 -18.954375221142836,23.89360877504997 c-8.305849816006413,9.92192228794448 -15.972788107704636,19.438868155972855 -16.824670140115554,20.85628562567921 c-1.916734572924557,3.037323149370758 2.129705081027285,8.504504818238123 6.389115243081855,8.504504818238123 c4.898321686362755,0 43.44598365295661,-47.382241130183836 43.44598365295661,-53.456887428925356 c0,-7.4920637684478715 -8.731790832211868,-7.289575558489819 -14.056053534780078,0.20248820995805067 z" id="svg_4" fill="#616161" class="selected" fill-opacity="1"/>
<path d="M217.8313734294582,137.28418486316176 c-38.973602982799314,9.92192228794448 -71.98403173872222,41.30759483144232 -82.20661612765319,77.95796083384946 c-4.046439653951841,14.376662907021592 -4.046439653951841,42.52252409119062 0.21297050810272858,57.50665162808637 c4.472380670157299,17.2114978464343 16.398729123910098,36.042901372533 30.667753166792906,49.40712322976434 c37.48280942608021,35.2329485327008 95.19781712191964,41.51008304140037 141.62538788831446,15.38910395681185 c15.120906075293727,-8.302016608280073 34.07528129643656,-26.930931924420726 42.16816060434024,-41.10510662148427 c7.240997275492767,-12.756757227357186 14.26902404288281,-38.27027168207156 14.26902404288281,-51.836981749260936 c-0.21297050810272858,-50.21707606959653 -37.05686840987476,-95.16945868028375 -88.38276086263232,-107.52123948772486 c-15.75981759960191,-3.8472759892029624 -43.23301314485389,-3.6447877792449095 -58.353919220147624,0.20248820995805067 z" id="svg_5" fill="#616161" class="selected" fill-opacity="1"/>
<path d="M8.268393456373378,236.70589595256453 c-2.7686166053354704,2.6323467294546576 -1.4907935567190995,8.504504818238123 2.342675589130013,10.12441049790253 c1.916734572924557,0.8099528398322021 18.741404713040104,1.4174174697063542 37.269838917977495,1.0124410497902532 c27.047254529046523,-0.40497641991610106 33.86231078833382,-1.2149292597483035 34.92716332884747,-3.6447877792449095 c0.6389115243081858,-1.6199056796644042 0,-4.252252409119062 -1.4907935567190995,-5.872158088783466 c-2.129705081027285,-2.429858519496607 -9.157731848417328,-3.037323149370758 -37.269838917977495,-3.037323149370758 c-18.954375221142836,0 -35.140133836950206,0.6074646298741518 -35.77904536125839,1.4174174697063542 z" id="svg_6" fill="#616161" class="selected" fill-opacity="1"/><path d="M414.70903676692024,238.90928607402452 c-2.7686166053354704,2.6323467294546576 -1.4907935567190995,8.504504818238123 2.342675589130013,10.124410497902531 c1.916734572924557,0.8099528398322019 18.741404713040104,1.4174174697063542 37.269838917977495,1.0124410497902532 c27.047254529046523,-0.40497641991610117 33.86231078833382,-1.2149292597483035 34.92716332884747,-3.6447877792449095 c0.6389115243081862,-1.619905679664405 0,-4.252252409119062 -1.4907935567190995,-5.872158088783466 c-2.129705081027285,-2.429858519496607 -9.157731848417328,-3.037323149370758 -37.269838917977495,-3.037323149370758 c-18.954375221142836,0 -35.140133836950206,0.6074646298741516 -35.77904536125839,1.4174174697063542 z" fill="#616161" class="selected" id="svg_31" fill-opacity="1"/>

<path d="M359.6697318258754,358.19882192739493 c-4.472380670157299,4.049764199161012 1.4907935567190995,11.13685154769278 32.58448773971745,38.47275989202961 c18.741404713040104,16.401545006602095 35.56607485315566,30.575719703665637 37.48280942608021,31.588160753455885 c3.6204986377463837,1.8223938896224547 9.370702356520052,-1.4174174697063542 9.370702356520052,-5.467181668867365 c0,-3.2398113593288085 -71.34512021441404,-66.01115644632449 -75.17858936026316,-66.01115644632449 c-1.4907935567190995,0 -3.6204986377463837,0.6074646298741518 -4.25941016205457,1.4174174697063542 z" id="svg_8" fill="#616161" class="selected" fill-opacity="1"/>
<path d="M141.80090203678418,368.3232324252975 c-19.16734572924556,19.641356365930903 -45.575688733983895,51.43200532934484 -45.575688733983895,54.8743048986317 c0,6.0746462987415155 5.750203718773669,6.884599138573719 11.287436929444613,1.8223938896224547 c2.981587113438199,-2.429858519496607 14.056053534780078,-14.579151116979638 25.13051995612196,-26.728443714462678 c11.074466421341882,-12.351780807441084 21.29705081027285,-23.286144145175815 22.787844366991948,-24.501073404924117 c4.472380670157299,-3.037323149370758 2.129705081027285,-9.719434077986428 -3.1945576215409277,-10.52938691781863 c-3.1945576215409277,-0.40497641991610106 -6.815056259287312,1.4174174697063542 -10.435554897033697,5.062205248951265 z" id="svg_9" fill="#616161" class="selected" fill-opacity="1"/>
<path d="M246.56026985947145,403.86360790280156 c-0.6389115243081862,1.8223938896224547 -1.2778230486163713,18.831403526098704 -1.2778230486163713,38.27027168207156 c0,29.36079044391733 0.6389115243081862,35.435436742658844 3.407528129643656,37.66280705219741 c2.342675589130013,1.8223938896224547 4.25941016205457,2.024882099580506 6.815056259287312,0.40497641991610117 c3.1945576215409277,-1.8223938896224547 3.6204986377463837,-6.884599138573719 4.25941016205457,-36.24538958249105 c0.21297050810272863,-18.831403526098704 0,-36.24538958249105 -0.6389115243081862,-38.87773631194571 c-1.2778230486163713,-5.264693458909315 -10.435554897033697,-6.277134508699566 -12.56525997806098,-1.2149292597483035 z" id="svg_10" fill="#616161" class="selected" fill-opacity="1"/>
</g></svg>