<svg xmlns="http://www.w3.org/2000/svg" version="1.0" width="500" height="500" preserveAspectRatio="xMidYMid meet" style=""><rect id="backgroundrect" width="100%" height="100%" x="0" y="0" fill="none" stroke="none"/>


<g class="currentLayer" style=""><title>Layer 1</title><g transform="translate(0,493) scale(0.10000000149011612,-0.10000000149011612) " fill="#616161" stroke="none" id="svg_1" class="" fill-opacity="1">
<path d="M1137.867960105765,4413.001832852367 c-129.98611524884575,-91.34131164394833 -299.17439223940676,-272.038254243933 -425.03396414701933,-458.6922389076536 c-247.59260047399184,-365.3652465757933 -359.0092706872881,-746.6159386548819 -359.0092706872881,-1231.1220265053903 c0,-653.2889463230215 210.45371040289308,-1151.6947989889138 678.8163796328611,-1600.4586344570077 c466.29939755935135,-450.74951615600577 984.1805868841174,-653.2889463230215 1662.9969665169788,-653.2889463230215 c691.1960096565605,0 1200.8241122988602,204.52511085492776 1681.5664115525276,673.1457532021407 c278.5416755332409,270.052573556021 297.1111205687903,307.7805066263476 284.7314905450907,561.9476346790731 c-6.189815011849795,107.22675714724369 -14.442901694316193,200.55374947910389 -20.632716706165983,204.52511085492776 c-6.189815011849795,5.957042063735761 -37.138890071098785,1.9856806879119202 -70.15123680096437,-11.91408412747152 c-33.01234672986559,-11.91408412747152 -101.10031186021335,-27.79952963076688 -152.68210362562832,-37.72793307032647 c-51.58179176541497,-9.928403439559602 -189.8209936967271,-49.642017197798005 -309.4907505924897,-89.35563095603639 c-328.060195628039,-107.22675714724369 -565.3364377489481,-140.9833288417463 -798.4861365286238,-113.18379921097942 c-812.92903822294,99.28403439559601 -1446.3534411022358,607.6182905010473 -1735.211474988559,1393.9478429141675 c-109.35339854267974,299.8377838746999 -136.17593026069548,466.63496165930115 -136.17593026069548,883.6279061208043 c-2.0632716706166,361.3938851999694 -4.1265433412332,381.25069207908865 -51.58179176541497,462.66360028347725 c-63.961421789114546,105.24107645933175 -119.6697568957627,109.2124378351556 -249.65587214460845,15.885445503295356 zm30.94907505924898,-1183.465689995504 c39.20216174171537,-188.63966535163235 134.11265859007892,-456.70655821974157 210.45371040289308,-605.6326098131356 c160.93519030809472,-307.7805066263476 466.29939755935135,-661.2316690746693 748.9676164338254,-865.756779929597 c276.47840386262425,-200.55374947910389 641.6774895617623,-347.494120384586 988.3071302253503,-395.15045689447186 c243.46605713275875,-35.74225238241457 707.7021830214932,-15.885445503295356 918.1558934243861,37.72793307032647 c90.78395350713033,23.82816825494304 167.12500531994442,37.72793307032647 171.25154866117768,33.756571694502625 c16.506173364932796,-15.885445503295356 -241.40278546214213,-222.39623704613504 -404.4012474408534,-325.65163281755486 c-274.4151321920076,-172.754219848337 -569.4629810901814,-276.0096156197568 -924.3457084362364,-323.6659521296429 c-505.50155930106666,-69.49882407691719 -1202.8873839694772,176.7255812241609 -1607.2886314103305,565.9189960548972 c-404.4012474408534,389.1934148307363 -660.2469345973115,1060.3534873449653 -588.0324261257308,1546.8452558833856 c47.455248424181775,331.60867488129054 146.49228861377856,599.6755677493998 317.7438372749562,863.7710992416847 l107.29012687206313,164.8114970966894 l12.37963002369959,-264.0955314922853 c8.253086682466398,-144.95469021757012 28.885803388632386,-339.5513976329383 49.51852009479836,-432.8783899647985 z" id="svg_2" fill="#616161"/>
</g></g></svg>