<svg xmlns="http://www.w3.org/2000/svg" version="1.0" width="500" height="500" preserveAspectRatio="xMidYMid meet" style=""><rect id="backgroundrect" width="100%" height="100%" x="0" y="0" fill="none" stroke="none"/>


<g class="currentLayer" style=""><title>Layer 1</title><g transform="translate(0,493) scale(0.10000000149011612,-0.10000000149011612) " fill="#616161" stroke="none" id="svg_1" class="selected" fill-opacity="1">
<path d="M979.3584860431728,4669.018892680682 c-146.4065592912392,-102.87996632054153 -336.96747773380446,-306.40337795465626 -478.72620974595674,-516.636352609676 c-278.8696367452175,-411.5198652821661 -404.36097328056536,-840.9318986200785 -404.36097328056536,-1386.6430243203422 c0,-735.8154112925686 237.0391912334349,-1297.1821840416108 764.5675874098049,-1802.6359316164453 c525.2044825368264,-507.6902685818027 1108.5068060622395,-735.8154112925686 1873.0743934720447,-735.8154112925686 c778.5110692470655,0 1352.5177382143047,230.36166371773427 1893.9896162279354,758.1806213622515 c313.7283413383698,304.1668569476879 334.6435640942611,346.66075608008555 320.7000822570002,632.935444972027 c-6.971740918630437,120.77213437628788 -16.267395476804356,225.88862170379767 -23.23913639543479,230.36166371773427 c-6.971740918630437,6.709563020904882 -41.830445511782635,2.236521006968295 -79.01306374447832,-13.419126041809765 c-37.182618232695674,-13.419126041809765 -113.8717683376305,-31.311294097556118 -171.9696093262175,-42.49389913239758 c-58.09784098858699,-11.18260503484147 -213.8000548380001,-55.913025174207355 -348.5870459315218,-100.64344531357324 c-369.5022686874131,-120.77213437628788 -636.7523372349134,-158.79299149474886 -899.3545785033267,-127.48169739719273 c-915.621973980131,111.82605034841471 -1629.063461319979,684.3754281322978 -1954.4113708560658,1570.037746891742 c-123.1674228958044,337.71467205221234 -153.3783002098696,525.5824366375491 -153.3783002098696,995.2518481008908 c-2.32391363954348,407.0468232682295 -4.64782727908696,429.4120333379125 -58.09784098858699,521.1093946236124 c-72.04132282584786,118.53561336931958 -134.78699109352178,123.00865538325617 -281.19355038476095,17.892168055746353 zm34.85870459315219,-1332.966520153103 c44.154359151326105,-212.4694956619879 151.05438657032616,-514.3998316027076 237.0391912334349,-682.1389071253296 c181.26526388439143,-346.66075608008555 525.2044825368264,-744.7614953204418 843.580651154283,-975.123159038176 c311.4044276988263,-225.88862170379767 722.7371418980222,-391.39117621945144 1113.1546333413262,-445.06768038669037 c274.22180946613065,-40.2573781254293 797.1023783634132,-17.892168055746353 1034.141569596848,42.49389913239758 c102.25220013991309,26.83825208361953 188.23700480302176,42.49389913239758 192.8848320821088,38.02085711846099 c18.591309116347837,-17.892168055746353 -271.89789582658716,-250.49035278044894 -455.487073350522,-366.7894451428002 c-309.08051405928273,-194.57732760624154 -641.4001645140004,-310.8764199685928 -1041.1133105154788,-364.5529241358319 c-569.3588416881524,-78.27823524389026 -1354.8416518538486,199.05036962017817 -1810.3287252043706,637.4084869859638 c-455.487073350522,438.35811736578563 -743.6523646539133,1194.302217721069 -662.3153872698917,1742.2498644283012 c53.45001370950003,373.499008163705 164.99786840758708,675.4293441044247 357.8827004896958,972.8866380312076 l120.8435092562609,185.63124357836844 l13.943481837260874,-297.4572939267831 c9.295654558173919,-163.26603350868544 32.53479095360871,-382.4450921915782 55.7739273490435,-487.561579519088 z" id="svg_2" fill="#616161"/>
</g></g></svg>