<svg xmlns="http://www.w3.org/2000/svg" version="1.0" width="500" height="500" preserveAspectRatio="xMidYMid meet" style=""><rect id="backgroundrect" width="100%" height="100%" x="0" y="0" fill="none" stroke="none" style="" class=""/>


<g class="currentLayer" style=""><title>Layer 1</title><g transform="translate(0,415) scale(0.10000000149011612,-0.10000000149011612) " fill="#616161" stroke="none" id="svg_1" class="selected" fill-opacity="1">
<path d="M1183.420289747438,3705.6333198862144 c-273.33884437887855,-60.26368222526457 -456.2821654198604,-165.72512611947755 -688.7277968601664,-400.3230319249719 c-157.1160286587255,-157.1160286587255 -219.53198524917812,-236.75018017068228 -286.2524905700067,-370.19119081233947 c-152.81147992834948,-303.47068549151084 -195.85696723210987,-714.5550892424228 -111.91826698977705,-1086.8985544199504 c60.26368222526457,-275.4911187440666 170.02967484985365,-469.19581161098847 404.6275806553478,-710.2505405120467 l99.00462079864894,-103.30916952902498 l-55.959133494888526,-58.11140786007655 c-32.28411547782031,-34.43638984300833 -83.9387002423328,-114.0705413549651 -118.37509008534114,-178.6387723106057 c-55.959133494888526,-109.76599262458906 -60.26368222526457,-137.7455593720333 -60.26368222526457,-355.1252702560233 c0,-234.59790580549424 2.1522743651880205,-243.20700326624637 83.9387002423328,-406.77985502053593 c55.959133494888526,-114.0705413549651 131.28873627646928,-219.53198524917812 228.1410827099302,-322.841154778203 l146.3546568327854,-152.81147992834948 l1874.630972078766,-6.4568230955640615 l1874.630972078766,-4.304548730376041 l105.46144389421299,51.65458476451249 c245.3592776314343,124.83191318090519 348.6684471604593,411.08440375091186 238.90245453587025,656.4436813823462 c-40.89321293857239,88.24324897270884 -40.89321293857239,99.00462079864894 -8.609097460752082,210.92288778842598 c51.65458476451249,180.7910466757937 34.43638984300833,434.75942176798003 -43.0454873037604,602.6368222526457 c-64.56823095564062,139.89783373722128 -238.90245453587025,327.1457035085791 -372.34346517752755,398.1707575597838 c-38.74093857338436,19.37046928669218 -88.24324897270884,75.32960278158072 -116.2228157201531,129.13646191128123 c-210.92288778842598,413.23667811609994 -654.2914070171582,682.2709737646026 -1129.944041723711,684.4232481297904 l-152.81147992834948,0 l-15.065920556316142,135.5932850068453 c-17.218194921504164,163.57285175428956 -77.48187714676872,380.9525626382797 -142.05010810240935,510.08902454956086 c-124.83191318090519,247.51155199662233 -439.06397049835624,553.1345118533211 -699.4891686861067,682.2709737646026 c-262.57747255293856,131.28873627646928 -708.0982661468587,170.02967484985365 -1054.6144389421302,94.7000720682729 zm596.1799991570817,-273.33884437887855 c553.1345118533211,-109.76599262458906 938.3916232219769,-533.764042566629 1015.8735003687457,-1119.1826698977702 l15.065920556316142,-105.46144389421299 l-144.20238246759735,-73.1773284163927 c-137.7455593720333,-71.02505405120468 -365.8866420819635,-269.03429564850256 -451.9776166894843,-396.0184831945958 l-40.89321293857239,-60.26368222526457 l-96.85234643346092,34.43638984300833 c-225.98880834474215,79.63415151195676 -497.1753783584328,53.80685912970052 -701.6414430512946,-64.56823095564062 c-111.91826698977705,-66.72050532082862 -275.4911187440666,-232.4456314403062 -309.9275085870749,-312.079782952263 c-36.58866420819635,-88.24324897270884 -152.81147992834948,-124.83191318090519 -230.29335707511814,-73.1773284163927 c-219.53198524917812,142.05010810240935 -406.77985502053593,454.1298910546722 -469.19581161098847,779.1233201980633 c-38.74093857338436,198.0092415972979 -38.74093857338436,204.46606469286195 6.4568230955640615,408.9321293857239 c109.76599262458906,507.93675018437284 449.82534232429623,858.75747171002 940.5438975871652,972.8280130649855 c219.53198524917812,49.50231039932447 251.8161007269984,49.50231039932447 467.0435372458005,8.609097460752082 z" id="svg_2" fill="#616161"/>
</g></g></svg>