<svg xmlns="http://www.w3.org/2000/svg" version="1.0" width="415.000000" height="415.000000" preserveAspectRatio="xMidYMid meet"><rect id="backgroundrect" width="100%" height="100%" x="0" y="0" fill="none" stroke="none"/>


<g class="currentLayer" style=""><title>Layer 1</title><g transform="translate(0,415) scale(0.10000000149011612,-0.10000000149011612) " fill="#616161" stroke="none" id="svg_1" class="" fill-opacity="1">
<path d="M1495 3051 c-127 -28 -212 -77 -320 -186 -73 -73 -102 -110 -133 -172 -71 -141 -91 -332 -52 -505 28 -128 79 -218 188 -330 l46 -48 -26 -27 c-15 -16 -39 -53 -55 -83 -26 -51 -28 -64 -28 -165 0 -109 1 -113 39 -189 26 -53 61 -102 106 -150 l68 -71 871 -3 871 -2 49 24 c114 58 162 191 111 305 -19 41 -19 46 -4 98 24 84 16 202 -20 280 -30 65 -111 152 -173 185 -18 9 -41 35 -54 60 -98 192 -304 317 -525 318 l-71 0 -7 63 c-8 76 -36 177 -66 237 -58 115 -204 257 -325 317 -122 61 -329 79 -490 44z m277 -127 c257 -51 436 -248 472 -520 l7 -49 -67 -34 c-64 -33 -170 -125 -210 -184 l-19 -28 -45 16 c-105 37 -231 25 -326 -30 -52 -31 -128 -108 -144 -145 -17 -41 -71 -58 -107 -34 -102 66 -189 211 -218 362 -18 92 -18 95 3 190 51 236 209 399 437 452 102 23 117 23 217 4z" id="svg_2" fill="#616161"/>
</g></g></svg>