<svg xmlns="http://www.w3.org/2000/svg" version="1.0" width="500" height="500" preserveAspectRatio="xMidYMid meet" style=""><rect id="backgroundrect" width="100%" height="100%" x="0" y="0" fill="none" stroke="none" style="" class=""/>


<g class="currentLayer" style=""><title>Layer 1</title><g transform="translate(0,415) scale(0.10000000149011612,-0.10000000149011612) " fill="#616161" stroke="none" id="svg_1" class="" fill-opacity="1">
<path d="M1229.1743610184515,3606.1549073197248 c-263.3648176693409,-58.06468421056334 -439.63260902283685,-159.67788157904917 -663.5963909778667,-385.7154022558852 c-151.38292669182587,-151.38292669182587 -211.5213496241951,-228.11125939864175 -275.8072500001759,-356.68306015060335 c-147.23544924821422,-292.39715977462254 -188.71022368433088,-688.4812556395368 -107.83441353390334,-1047.238054511946 c58.06468421056334,-265.43855639114673 163.8253590226609,-452.0750413536718 389.8628796994967,-684.3337781959251 l95.39198120306835,-99.53945864668003 l-53.91720676695167,-55.99094548875751 c-31.10608082708751,-33.17981954889334 -80.87581015042753,-109.90815225570921 -114.05562969932087,-172.1203139098842 c-53.91720676695167,-105.76067481209755 -58.06468421056334,-132.71927819557337 -58.06468421056334,-342.16688909796255 c0,-226.0375206768359 2.073738721805834,-234.33247556405928 80.87581015042753,-391.9366184213027 c53.91720676695167,-109.90815225570921 126.49806203015591,-211.5213496241951 219.81630451141842,-311.06080827087504 l141.0142330827967,-147.23544924821422 l1806.2264266928814,-6.221216165417502 l1806.2264266928814,-4.147477443611668 l101.61319736848584,49.769729323340016 c236.40621428586505,120.27684586473836 335.9456729325451,396.0840958649142 230.18499812044755,632.4903101507792 c-39.401035714310844,85.02328759403919 -39.401035714310844,95.39198120306835 -8.294954887223335,203.22639473697168 c49.769729323340016,174.19405263169003 33.17981954889334,418.8952218047783 -41.47477443611667,580.6468421056335 c-62.21216165417502,134.79301691737916 -230.18499812044755,315.20828571448675 -358.75679887240926,383.64166353407927 c-37.327296992505005,18.663648496252502 -85.02328759403919,72.58085526320419 -111.98189097751502,124.42432330835004 c-203.22639473697168,398.1578345867201 -630.4165714289735,657.3751748124494 -1088.7128289480631,659.4489135342551 l-147.23544924821422,0 l-14.516171052640836,130.64553947376754 c-16.58990977444667,157.60414285724337 -74.65459398501001,367.0517537596327 -136.86675563918504,491.47607706798266 c-120.27684586473836,238.47995300767087 -423.0426992483902,532.9508515040992 -673.9650845868961,657.3751748124494 c-252.9961240603118,126.49806203015591 -682.2600394741193,163.8253590226609 -1016.1319736848587,91.24450375945669 zm574.425625940216,-263.3648176693409 c532.9508515040992,-105.76067481209755 904.1500827073436,-514.2872030078468 978.8046766923536,-1078.3441353390333 l14.516171052640836,-101.61319736848584 l-138.94049436099084,-70.50711654139835 c-132.71927819557337,-68.43337781959252 -352.53558270699176,-259.21734022572923 -435.48513157922514,-381.5679248122734 l-39.401035714310844,-58.06468421056334 l-93.31824248126253,33.17981954889334 c-217.74256578961257,76.72833270681585 -479.0336447371477,51.843468045145855 -676.0388233087017,-62.21216165417502 c-107.83441353390334,-64.28590037598084 -265.43855639114673,-223.96378195503004 -298.61837594004004,-300.6921146618459 c-35.25355827069917,-85.02328759403919 -147.23544924821422,-120.27684586473836 -221.89004323322416,-70.50711654139835 c-211.5213496241951,136.86675563918504 -391.9366184213027,437.5588703010308 -452.0750413536718,750.6934172937117 c-37.327296992505005,190.7839624061367 -37.327296992505005,197.0051785715542 6.221216165417502,394.0103571431084 c105.76067481209755,489.4023383461768 433.41139285741923,827.4217500005276 906.2238214291497,937.3299022562371 c211.5213496241951,47.69599060153418 242.62743045128258,47.69599060153418 450.001302631866,8.294954887223335 z" id="svg_2" fill="#616161"/>
</g></g></svg>