<svg xmlns="http://www.w3.org/2000/svg" version="1.0" width="500" height="500" preserveAspectRatio="xMidYMid meet"><rect id="backgroundrect" width="100%" height="100%" x="0" y="0" fill="none" stroke="none" style="" class=""/>


<g class="currentLayer" style=""><title>Layer 1</title><g transform="translate(0,414) scale(0.10000000149011612,-0.10000000149011612) " fill="#616161" stroke="none" id="svg_1" class="selected" fill-opacity="1">
<path d="M1720.620273166812,3717.0183891305646 c80.46340990001498,-278.17350279719466 87.36027360573054,-335.647367011491 75.86550076287125,-556.3470055943893 c-13.793727411431139,-222.9985931514701 -22.989545685718568,-275.87454822862276 -89.65922817430238,-450.59509544008375 c-55.174909645724554,-142.53518325145507 -186.21532005432042,-351.7400489914941 -282.7714119343383,-448.2961408715119 c-82.76236446858681,-85.06131903715867 -344.84318528577853,-255.18395711147602 -459.79091371437124,-296.56513934576947 c-165.52472893717362,-62.071773351440115 -331.04945787434724,-89.65922817430238 -604.6250515343982,-94.25713731144609 c-167.8236835057455,-4.597909137143713 -310.3588667572006,-11.494772842859286 -314.9567758943444,-16.092681980002993 c-4.597909137143713,-4.597909137143713 16.092681980002993,-89.65922817430238 48.27804594000899,-188.51427462289217 c57.473864214296405,-186.21532005432042 124.14354670288023,-289.6682756400539 303.462003051485,-478.1825502629461 l103.45295558573353,-108.05086472287724 l-57.473864214296405,-75.86550076287125 c-301.1630484829132,-395.42018579435927 -243.68918426861674,-866.70587235159 154.02995609431437,-1275.9197855573802 l163.22577436860175,-167.8236835057455 l1908.1322919146403,0 l1908.1322919146403,0 l124.14354670288023,73.5665461942994 c225.29754772004188,137.93727411431138 319.5546850314881,429.90450432293704 206.90591117146707,650.6041429058353 c-43.68013680286527,87.36027360573054 -43.68013680286527,96.55609188001797 -9.195818274287427,202.30800203432332 c57.473864214296405,174.72054721146108 36.7832730971497,473.5846411258023 -45.979091371437136,632.2125063572604 c-80.46340990001498,158.6278652314581 -216.10172944575447,305.76095762005684 -342.5442307172066,372.43064010864083 c-75.86550076287125,41.381182234293405 -117.24668299716468,85.06131903715867 -167.8236835057455,181.61741091717664 c-96.55609188001797,186.21532005432042 -351.7400489914941,432.20345889150894 -547.1511873201019,526.4605962029551 c-193.11218376003595,94.25713731144609 -439.1003225972246,149.43204695717068 -618.4187789458294,137.93727411431138 l-131.04041040859582,-6.89686370571557 l0,80.46340990001498 c-2.2989545685718573,124.14354670288023 -78.16445533144312,436.8013680286527 -137.93727411431138,551.7490964572455 c-142.53518325145507,285.07036650291013 -351.7400489914941,508.0689596543802 -620.7177335144012,666.6968248858382 c-121.84459213430837,73.5665461942994 -183.91636548574854,94.25713731144609 -344.84318528577853,112.64877386002094 c-250.58604797433236,32.185363960005986 -236.79232056290115,34.484318528577845 -220.69963858289822,-25.288500254290415 zm788.5414170201466,-714.9748708258472 c124.14354670288023,-183.91636548574854 229.89545685718562,-462.08986828294303 241.39022970004487,-639.1093700629762 c6.89686370571557,-96.55609188001797 6.89686370571557,-96.55609188001797 -128.74145584002395,-165.52472893717362 c-131.04041040859582,-68.96863705715569 -406.9149586372186,-314.9567758943444 -475.8835956943742,-425.3065951857934 c-32.185363960005986,-52.8759550771527 -32.185363960005986,-52.8759550771527 -124.14354670288023,-13.793727411431139 c-128.74145584002395,55.174909645724554 -420.7086860486497,57.473864214296405 -581.6355058486796,2.2989545685718573 c-156.32891066288624,-55.174909645724554 -335.647367011491,-200.00904746575148 -423.0076406172216,-340.2452761486347 c-85.06131903715867,-135.63831954573953 -179.31845634860477,-179.31845634860477 -266.6787299543354,-121.84459213430837 c-68.96863705715569,43.68013680286527 -257.4829116800479,241.39022970004487 -257.4829116800479,266.6787299543354 c0,9.195818274287427 43.68013680286527,18.39163654857485 98.85504644858982,18.39163654857485 c388.5233220886437,2.2989545685718573 721.8717345315629,144.83413782002694 1023.034783014476,443.69823173436833 c331.04945787434724,324.1525941686318 457.49195914579934,609.222960671542 480.48150483151807,1078.2096926602005 l13.793727411431139,266.6787299543354 l140.23622868288322,-96.55609188001797 c98.85504644858982,-68.96863705715569 177.0195017800329,-151.7310015257425 259.7818662486198,-273.57559366005097 z" id="svg_2" fill="#616161" fill-opacity="1"/>
</g></g></svg>