<svg xmlns="http://www.w3.org/2000/svg" version="1.0" width="414.000000" height="414.000000" preserveAspectRatio="xMidYMid meet"><rect id="backgroundrect" width="100%" height="100%" x="0" y="0" fill="none" stroke="none"/>


<g class="currentLayer" style=""><title>Layer 1</title><g transform="translate(0,414) scale(0.10000000149011612,-0.10000000149011612) " fill="#616161" stroke="none" id="svg_1" class="selected" fill-opacity="1">
<path d="M1714 3038 c35 -121 38 -146 33 -242 -6 -97 -10 -120 -39 -196 -24 -62 -81 -153 -123 -195 -36 -37 -150 -111 -200 -129 -72 -27 -144 -39 -263 -41 -73 -2 -135 -5 -137 -7 -2 -2 7 -39 21 -82 25 -81 54 -126 132 -208 l45 -47 -25 -33 c-131 -172 -106 -377 67 -555 l71 -73 830 0 830 0 54 32 c98 60 139 187 90 283 -19 38 -19 42 -4 88 25 76 16 206 -20 275 -35 69 -94 133 -149 162 -33 18 -51 37 -73 79 -42 81 -153 188 -238 229 -84 41 -191 65 -269 60 l-57 -3 0 35 c-1 54 -34 190 -60 240 -62 124 -153 221 -270 290 -53 32 -80 41 -150 49 -109 14 -103 15 -96 -11z m343 -311 c54 -80 100 -201 105 -278 3 -42 3 -42 -56 -72 -57 -30 -177 -137 -207 -185 -14 -23 -14 -23 -54 -6 -56 24 -183 25 -253 1 -68 -24 -146 -87 -184 -148 -37 -59 -78 -78 -116 -53 -30 19 -112 105 -112 116 0 4 19 8 43 8 169 1 314 63 445 193 144 141 199 265 209 469 l6 116 61 -42 c43 -30 77 -66 113 -119z" id="svg_2" fill="#616161"/>
</g></g></svg>