<svg xmlns="http://www.w3.org/2000/svg" version="1.0" width="500" height="500" preserveAspectRatio="xMidYMid meet"><rect id="backgroundrect" width="100%" height="100%" x="0" y="0" fill="none" stroke="none" style="" class=""/>


<g class="currentLayer" style=""><title>Layer 1</title><g transform="translate(0,411) scale(0.10000000149011612,-0.10000000149011612) " fill="#616161" stroke="none" id="svg_1" class="selected" fill-opacity="1">
<path d="M1730.2027479141395,3053.541200961059 c-279.5438631489116,-35.78161448306069 -630.6509552639446,-223.6350905191293 -798.3772731532915,-429.3793737967283 c-42.490667198634576,-51.43607081939973 -111.81754525956465,-152.07186155300798 -154.30821245819922,-223.6350905191293 c-55.90877262978233,-91.690387112843 -116.29024706994723,-154.30821245819922 -212.45333599317286,-216.92603780355546 c-250.47130138142487,-167.72631788934694 -384.65235569290246,-420.4339701759632 -384.65235569290246,-722.3413423767876 c0,-89.45403620765173 15.654456336339054,-210.2169850879816 35.78161448306069,-266.1257577177639 c31.308912672678108,-96.16308892322562 31.308912672678108,-109.58119435437337 -6.70905271557388,-178.90807241530345 c-26.83621086229552,-51.43607081939973 -40.254316293443274,-122.99929978552113 -40.254316293443274,-245.99859957104226 c0,-154.30821245819922 6.70905271557388,-178.90807241530345 67.0905271557388,-266.1257577177639 c38.017965388251994,-53.67242172459104 111.81754525956465,-127.47200159590372 165.4899669841557,-165.4899669841557 l96.16308892322562,-67.0905271557388 l1929.970831180086,-6.70905271557388 l1929.970831180086,-4.472701810382587 l96.16308892322562,73.79957987131267 c190.08982694125993,145.36280883743405 380.17965388251986,456.21558465902376 424.9066719863457,695.5051315144921 c46.96336900901716,263.8894068125726 -67.0905271557388,599.3420425912666 -266.1257577177639,776.0137641013788 c-107.34484344918208,96.16308892322562 -297.4346703904419,199.0352305620251 -366.761548451372,199.0352305620251 c-22.363509051912928,0 -71.56322896612139,51.43607081939973 -114.05389616475594,118.52659797513853 c-225.87144142432058,351.10709211503314 -644.0690606950924,491.9971991420845 -1042.1395218191426,348.87074120984164 c-71.56322896612139,-24.599859957104226 -80.50863258688655,-24.599859957104226 -111.81754525956465,26.83621086229552 c-17.890807241530347,29.072561767486807 -100.63579073360822,120.76294888032982 -185.6171251308773,203.5079323724077 c-277.3075122437204,275.071161338529 -668.6689206521966,402.54316293443287 -1062.2666799658643,351.10709211503314 z" id="svg_2" fill="#616161"/>
</g></g></svg>