<svg xmlns="http://www.w3.org/2000/svg" version="1.0" width="500" height="500" preserveAspectRatio="xMidYMid meet"><rect id="backgroundrect" width="100%" height="100%" x="0" y="0" fill="none" stroke="none" style="" class=""/>


<g class="currentLayer" style=""><title>Layer 1</title><g transform="translate(0,411) scale(0.10000000149011612,-0.10000000149011612) " fill="#616161" stroke="none" id="svg_1" class="selected" fill-opacity="1">
<path d="M1676.2091455637221,3089.639736077505 c-290.1186979336188,-37.13519333550321 -654.507782538244,-232.09495834689506 -828.5790012984153,-445.62232002603855 c-44.098042085910066,-53.38184041978585 -116.04747917344753,-157.82457167588868 -160.1455212593576,-232.09495834689506 c-58.023739586723764,-95.15893292222695 -120.68937834038542,-160.1455212593576 -220.4902104295503,-225.13210959648822 c-259.9463533485225,-174.07121876017126 -399.20332835665954,-436.33852169216283 -399.20332835665954,-749.666715460471 c0,-92.83798333875802 16.246647084282657,-218.16926084608141 37.13519333550321,-276.19300043280515 c32.49329416856531,-99.80083208916489 32.49329416856531,-113.72652958997858 -6.962848750406852,-185.67596667751604 c-27.85139500162741,-53.38184041978585 -41.77709250244111,-127.6522270907923 -41.77709250244111,-255.3044541815846 c0,-160.1455212593576 6.962848750406852,-185.67596667751604 69.62848750406852,-276.19300043280515 c39.45614291897217,-55.70279000325482 116.04747917344753,-132.2941262577302 171.75026917670235,-171.75026917670235 l99.80083208916489,-69.62848750406852 l2002.9794905337044,-6.962848750406852 l2002.9794905337044,-4.641899166937901 l99.80083208916489,76.59133625447537 c197.28071459486083,150.86172292548179 394.56142918972165,473.4737150276659 440.9804208591006,721.8153204588435 c48.73994125284796,273.8720508493362 -69.62848750406852,622.0144883696788 -276.19300043280515,805.3695054637259 c-111.40558000650964,99.80083208916489 -308.6862946013704,206.56451292873663 -380.6357316889078,206.56451292873663 c-23.209495834689502,0 -74.27038667100642,53.38184041978585 -118.36842875691647,123.01032792385438 c-234.41590793036397,364.38908460462534 -668.4334800390577,510.6089083631692 -1081.5625058965309,362.0681350211562 c-74.27038667100642,-25.530445418158457 -83.55418500488221,-25.530445418158457 -116.04747917344753,27.85139500162741 c-18.567596667751605,30.172344585096354 -104.4427312561028,125.33127750732332 -192.63881542792288,211.20641209567455 c-287.7977483501499,285.4767987666809 -693.9639254572162,417.7709250244112 -1102.4510521477516,364.38908460462534 z" id="svg_2" fill="#616161"/>
</g></g></svg>