<svg xmlns="http://www.w3.org/2000/svg" version="1.0" width="411.000000" height="411.000000" preserveAspectRatio="xMidYMid meet" style=""><rect id="backgroundrect" width="100%" height="100%" x="0" y="0" fill="none" stroke="none"/>


<g class="currentLayer" style=""><title>Layer 1</title><g transform="translate(0,411) scale(0.10000000149011612,-0.10000000149011612) " fill="#616161" stroke="none" id="svg_1" class="selected" fill-opacity="1">
<path d="M1733 2689 c-125 -16 -282 -100 -357 -192 -19 -23 -50 -68 -69 -100 -25 -41 -52 -69 -95 -97 -112 -75 -172 -188 -172 -323 0 -40 7 -94 16 -119 14 -43 14 -49 -3 -80 -12 -23 -18 -55 -18 -110 0 -69 3 -80 30 -119 17 -24 50 -57 74 -74 l43 -30 863 -3 863 -2 43 33 c85 65 170 204 190 311 21 118 -30 268 -119 347 -48 43 -133 89 -164 89 -10 0 -32 23 -51 53 -101 157 -288 220 -466 156 -32 -11 -36 -11 -50 12 -8 13 -45 54 -83 91 -124 123 -299 180 -475 157z" id="svg_2" fill="#616161" fill-opacity="1"/>
</g></g></svg>