<svg xmlns="http://www.w3.org/2000/svg" version="1.0" width="500" height="500" preserveAspectRatio="xMidYMid meet"><rect id="backgroundrect" width="100%" height="100%" x="0" y="0" fill="none" stroke="none" style="" class=""/>


<g class="currentLayer" style=""><title>Layer 1</title><g transform="translate(0,383) scale(0.10000000149011612,-0.10000000149011612) " fill="#616161" stroke="none" id="svg_1" class="selected" fill-opacity="1">
<path d="M2221.931988197919,2901.8215336188005 c-119.7597199809215,-17.669466882431042 -268.9685514325614,-64.7880452355805 -435.8468497666324,-139.39246096140045 c-149.20883145163987,-66.75131933362837 -378.9119009232435,-286.6380183149924 -473.14905762954237,-455.4795907471113 c-56.93494884338891,-100.12697900044257 -80.49423801996362,-121.72299407896939 -190.43758751064564,-172.7681206282146 c-247.3725363540346,-117.7964458828736 -402.4711900998181,-257.1889068442741 -545.7901992573144,-496.70834680611705 c-47.11857835314944,-78.53096392191573 -102.09025309849046,-133.50263866725675 -184.54776521650194,-188.47431341259775 c-219.88669898136405,-147.24555735359203 -337.68314486423765,-369.0955304330039 -337.68314486423765,-634.1375336694696 c0,-78.53096392191573 13.742918686335253,-184.54776521650194 31.412385568766297,-233.62961766769934 c27.485837372670506,-84.42078621605941 27.485837372670506,-96.2004308043468 -5.8898222941436815,-157.06192784383146 c-23.55928917657472,-45.155304255101555 -35.338933764862084,-107.98007539263415 -35.338933764862084,-215.9601507852683 c0,-135.46591276530467 5.8898222941436815,-157.06192784383146 58.8982229414368,-233.62961766769934 c33.37565966681419,-47.11857835314944 98.16370490239468,-111.90662358872993 145.28228325554414,-145.28228325554414 l84.42078621605941,-58.8982229414368 l1688.4157243211885,-5.8898222941436815 c1668.782983340709,-3.926548196095787 1688.4157243211885,-3.926548196095787 1753.2037695567687,35.338933764862084 c86.3840603141073,53.00840064729312 184.54776521650194,164.9150242360231 267.0052773345135,300.3809370013277 l66.75131933362837,111.90662358872993 l117.7964458828736,0 c72.64114162777207,0 149.20883145163987,15.706192784383148 200.25395800088515,37.30220786290997 c184.54776521650194,84.42078621605941 376.9486268251955,329.8300484720462 465.29596123735064,594.8720517085118 c68.71459343167626,208.1070543930767 78.53096392191573,298.41766290327973 43.19203015705365,461.3694130412549 c-62.82477113753259,306.27075929547135 -239.519439961843,547.7534733553623 -482.96542811978185,659.6600969440924 c-70.67786752972417,33.37565966681419 -135.46591276530467,72.64114162777207 -143.3190091574962,86.3840603141073 c-49.08185245119735,80.49423801996362 -206.1437802950288,239.519439961843 -286.6380183149924,286.6380183149924 c-159.02520194187937,94.23715670629888 -390.69154551153076,139.39246096140045 -571.3127625319371,109.94334949068202 l-117.7964458828736,-19.632740980478932 l-133.50263866725675,135.46591276530467 c-119.7597199809215,119.7597199809215 -166.87829833407096,151.1721055496878 -386.764997315435,249.33581045208246 c-155.09865374578357,70.67786752972417 -431.9203015705366,111.90662358872993 -590.9455035124158,88.34733441215519 zm374.9853527271477,-200.25395800088515 c159.02520194187937,-39.265481960957864 361.24243404081244,-153.13537964773568 473.14905762954237,-265.04200323646563 c58.8982229414368,-60.861497039484696 121.72299407896939,-135.46591276530467 137.42918686335253,-166.87829833407096 c33.37565966681419,-64.7880452355805 35.338933764862084,-64.7880452355805 147.24555735359203,-23.55928917657472 c125.64954227506519,45.155304255101555 318.05040388375875,41.228756059005775 455.4795907471113,-11.77964458828736 c129.576090471161,-49.08185245119735 294.49111470718407,-188.47431341259775 349.46278945252504,-298.41766290327973 c21.596015078526825,-43.19203015705365 49.08185245119735,-80.49423801996362 62.82477113753259,-82.45751211801155 c217.9234248833162,-62.82477113753259 363.20570813886025,-174.73139472626252 463.3326871393029,-363.20570813886025 c125.64954227506519,-235.5928917657472 121.72299407896939,-443.699946158824 -11.77964458828736,-706.7786752972415 c-127.61281637311308,-249.33581045208246 -294.49111470718407,-402.4711900998181 -422.1039310802971,-390.69154551153076 l-62.82477113753259,5.8898222941436815 l-3.926548196095787,157.06192784383146 c-3.926548196095787,249.33581045208246 -102.09025309849046,455.4795907471113 -278.7849219228009,594.8720517085118 c-86.3840603141073,68.71459343167626 -229.70306947160356,139.39246096140045 -282.71147011889667,141.35573505944834 c-19.632740980478932,0 -62.82477113753259,45.155304255101555 -100.12697900044257,104.05352719653835 c-198.29068390283726,308.23403339351927 -565.4229402377933,431.9203015705366 -914.8857296903183,306.27075929547135 c-62.82477113753259,-21.596015078526825 -70.67786752972417,-21.596015078526825 -98.16370490239468,23.55928917657472 c-15.706192784383148,25.522563274622616 -88.34733441215519,106.01680129458624 -162.95175013797518,178.6579429223583 c-204.18050619698093,202.217232098933 -455.4795907471113,308.23403339351927 -746.0441572581994,316.0871297857109 l-129.576090471161,3.926548196095787 l62.82477113753259,86.3840603141073 c88.34733441215519,123.6862681770173 294.49111470718407,280.7481960208488 453.5163166490634,345.5362412564292 c208.1070543930767,82.45751211801155 396.5813678056745,98.16370490239468 608.6149703948471,45.155304255101555 z" id="svg_2" fill="#616161"/>
</g></g></svg>