<svg xmlns="http://www.w3.org/2000/svg" version="1.0" width="384.000000" height="383.000000" preserveAspectRatio="xMidYMid meet" style=""><rect id="backgroundrect" width="100%" height="100%" x="0" y="0" fill="none" stroke="none"/>


<g class="currentLayer" style=""><title>Layer 1</title><g transform="translate(0,383) scale(0.10000000149011612,-0.10000000149011612) " fill="#616161" stroke="none" id="svg_1" class="selected" fill-opacity="1">
<path d="M1874 2760 c-61 -9 -137 -33 -222 -71 -76 -34 -193 -146 -241 -232 -29 -51 -41 -62 -97 -88 -126 -60 -205 -131 -278 -253 -24 -40 -52 -68 -94 -96 -112 -75 -172 -188 -172 -323 0 -40 7 -94 16 -119 14 -43 14 -49 -3 -80 -12 -23 -18 -55 -18 -110 0 -69 3 -80 30 -119 17 -24 50 -57 74 -74 l43 -30 860 -3 c850 -2 860 -2 893 18 44 27 94 84 136 153 l34 57 60 0 c37 0 76 8 102 19 94 43 192 168 237 303 35 106 40 152 22 235 -32 156 -122 279 -246 336 -36 17 -69 37 -73 44 -25 41 -105 122 -146 146 -81 48 -199 71 -291 56 l-60 -10 -68 69 c-61 61 -85 77 -197 127 -79 36 -220 57 -301 45z m191 -102 c81 -20 184 -78 241 -135 30 -31 62 -69 70 -85 17 -33 18 -33 75 -12 64 23 162 21 232 -6 66 -25 150 -96 178 -152 11 -22 25 -41 32 -42 111 -32 185 -89 236 -185 64 -120 62 -226 -6 -360 -65 -127 -150 -205 -215 -199 l-32 3 -2 80 c-2 127 -52 232 -142 303 -44 35 -117 71 -144 72 -10 0 -32 23 -51 53 -101 157 -288 220 -466 156 -32 -11 -36 -11 -50 12 -8 13 -45 54 -83 91 -104 103 -232 157 -380 161 l-66 2 32 44 c45 63 150 143 231 176 106 42 202 50 310 23z" id="svg_2" fill="#616161" fill-opacity="1"/>
</g></g></svg>