<svg xmlns="http://www.w3.org/2000/svg" version="1.0" width="500" height="500" preserveAspectRatio="xMidYMid meet"><rect id="backgroundrect" width="100%" height="100%" x="0" y="0" fill="none" stroke="none" style="" class=""/>


<g class="currentLayer" style=""><title>Layer 1</title><g transform="translate(0,502) scale(0.10000000149011612,-0.10000000149011612) " fill="#616161" stroke="none" id="svg_1" class="selected" fill-opacity="1">
<path d="M1662.007225360213,4966.570176343812 c-306.09526151734815,-46.732100995014996 -581.8146573879367,-196.2748241790629 -799.1189270147563,-436.9451443033902 c-72.43475654227323,-77.10796664177472 -154.21593328354945,-189.26500902981073 -184.59179893030915,-250.0167403233302 c-37.38568079601199,-74.77136159202398 -93.46420199002999,-133.18648783579272 -186.92840398005998,-196.2748241790629 c-278.0560009203392,-189.26500902981073 -404.2326736068797,-408.9058837063811 -418.2523039053841,-719.6743553232307 c-7.0098151492522485,-128.51327773629123 2.3366050497507493,-231.3238999253242 28.039260597008994,-320.1148918158527 c35.04907574626124,-119.1668575372882 35.04907574626124,-135.5230928855435 2.3366050497507493,-186.92840398005998 c-51.40531109451649,-77.10796664177472 -70.09815149252248,-285.0658160695914 -37.38568079601199,-406.56927865663033 c35.04907574626124,-123.84006763678971 158.88914338305096,-266.37297567158544 292.0756312188436,-329.4613120148556 c98.13741208953145,-49.068706044765726 128.51327773629123,-49.068706044765726 2042.192813482155,-49.068706044765726 c1310.8354329101703,0 1962.7482417906297,7.0098151492522485 2007.1437377358939,25.702655547258246 c207.95784942781668,77.10796664177472 483.6772452984051,507.0432957959126 532.7459513431709,829.4947926615163 c60.751731293519484,387.87643825862443 -261.69976557208395,859.8706583082758 -647.2395987809574,953.3348602983056 c-42.058890895513485,9.346420199002997 -91.12759694027923,56.07852119401799 -147.20611813429724,142.5329080347957 c-144.86951308454647,217.3042696268197 -343.48094231336006,343.48094231336006 -614.5271280844472,390.21304330837523 c-135.5230928855435,23.366050497507498 -184.59179893030915,21.029445447756743 -310.7684716168497,-9.346420199002997 c-81.78117674127623,-21.029445447756743 -165.8989585323032,-44.39549594526424 -186.92840398005998,-53.741916144267236 c-28.039260597008994,-9.346420199002997 -53.741916144267236,9.346420199002997 -88.79099189052847,67.76154644277175 c-74.77136159202398,121.50346258703897 -301.42205141784666,320.1148918158527 -462.6477998506484,404.2326736068797 c-240.67032012432722,128.51327773629123 -551.4387917411768,184.59179893030915 -820.1483724625131,144.86951308454647 z" id="svg_2" fill="#616161"/>
<path d="M4078.0568468024885,1879.9149056230713 c-46.732100995014996,-70.09815149252248 -177.58198378105695,-446.2915645023931 -177.58198378105695,-507.0432957959126 c0,-25.702655547258246 21.029445447756743,-58.41512624376873 46.732100995014996,-72.43475654227323 c81.78117674127623,-44.39549594526424 130.84988278604197,9.346420199002997 198.6114292288137,207.95784942781668 c32.71247069651049,102.81062218903298 81.78117674127623,212.63105952731814 107.48383228853447,245.3435302238287 c23.366050497507498,30.375865646759742 44.39549594526424,70.09815149252248 44.39549594526424,88.79099189052847 c0,95.80080703978072 -163.56235348255245,123.84006763678971 -219.64087467657043,37.38568079601199 z" id="svg_3" fill="#616161"/>
<path d="M2162.0407060068737,1856.5488551255635 c-16.356235348255247,-30.375865646759742 -49.068706044765726,-130.84988278604197 -72.43475654227323,-224.31408477607195 c-44.39549594526424,-186.92840398005998 -30.375865646759742,-238.3337150745764 72.43475654227323,-238.3337150745764 c67.76154644277175,0 86.45438684077773,35.04907574626124 137.8596979352942,261.69976557208395 c35.04907574626124,147.20611813429724 37.38568079601199,186.92840398005998 11.683025248753749,214.96766457706894 c-42.058890895513485,53.741916144267236 -109.82043733828522,46.732100995014996 -149.54272318404796,-14.019630298504497 z" id="svg_4" fill="#616161"/>
<path d="M2748.5285734943113,1842.5292248270594 c-18.692840398005995,-21.029445447756743 -74.77136159202398,-210.29445447756746 -123.84006763678971,-418.2523039053841 c-72.43475654227323,-315.4416817163512 -81.78117674127623,-383.2032281591229 -58.41512624376873,-413.57909380588256 c39.72228584576274,-46.732100995014996 105.14722723878373,-46.732100995014996 142.5329080347957,-2.3366050497507493 c16.356235348255247,18.692840398005995 70.09815149252248,205.62124437806597 119.1668575372882,413.57909380588256 c86.45438684077773,352.82736251236315 88.79099189052847,378.53001805962145 53.741916144267236,420.5889089551349 c-49.068706044765726,53.741916144267236 -84.11778179102697,53.741916144267236 -133.18648783579272,0 z" id="svg_5" fill="#616161"/>
<path d="M3433.1538530712805,1826.1729894788032 c-32.71247069651049,-39.72228584576274 -301.42205141784666,-1091.1945582336 -303.75865646759746,-1184.6587602236302 c0,-70.09815149252248 65.42494139302099,-121.50346258703897 126.17667268654046,-98.13741208953145 c44.39549594526424,16.356235348255247 56.07852119401799,56.07852119401799 189.26500902981073,593.4976826366902 c58.41512624376873,238.3337150745764 123.84006763678971,481.34064024865444 144.86951308454647,542.092371542174 c32.71247069651049,91.12759694027923 32.71247069651049,114.49364743778672 9.346420199002997,144.86951308454647 c-39.72228584576274,46.732100995014996 -128.51327773629123,49.068706044765726 -165.8989585323032,2.3366050497507493 z" id="svg_6" fill="#616161"/>
<path d="M1098.8854083702827,1770.0944682847853 c-51.40531109451649,-51.40531109451649 -79.44457169152548,-224.31408477607195 -81.78117674127623,-493.02366549740805 c-2.3366050497507493,-170.57216863180471 0,-175.24537873130623 58.41512624376873,-182.25519388055847 c32.71247069651049,-4.6732100995015005 70.09815149252248,7.0098151492522485 84.11778179102697,23.366050497507498 c14.019630298504497,16.356235348255247 42.058890895513485,165.8989585323032 63.08833634327023,334.13452211435725 c37.38568079601199,285.0658160695914 37.38568079601199,303.75865646759746 -2.3366050497507493,331.7979170646064 c-53.741916144267236,39.72228584576274 -70.09815149252248,37.38568079601199 -121.50346258703897,-14.019630298504497 z" id="svg_7" fill="#616161"/>
<path d="M1624.6215445642013,1770.0944682847853 c-28.039260597008994,-30.375865646759742 -63.08833634327023,-179.91858883080766 -114.49364743778672,-488.35045539790667 c-60.751731293519484,-373.85680796011997 -67.76154644277175,-450.9647746018946 -42.058890895513485,-481.34064024865444 c39.72228584576274,-46.732100995014996 105.14722723878373,-49.068706044765726 140.19630298504495,-4.6732100995015005 c16.356235348255247,18.692840398005995 53.741916144267236,189.26500902981073 86.45438684077773,380.86662310937214 c30.375865646759742,189.26500902981073 67.76154644277175,394.88625340787667 81.78117674127623,457.9745897511469 c21.029445447756743,84.11778179102697 18.692840398005995,119.1668575372882 -2.3366050497507493,144.86951308454647 c-39.72228584576274,49.068706044765726 -102.81062218903298,44.39549594526424 -149.54272318404796,-9.346420199002997 z" id="svg_8" fill="#616161"/>
<path d="M589.5055075246188,1739.7186026380255 c-28.039260597008994,-30.375865646759742 -100.47401713928221,-595.8342876864411 -100.47401713928221,-764.0698512684952 c0,-119.1668575372882 63.08833634327023,-163.56235348255245 137.8596979352942,-100.47401713928221 c39.72228584576274,32.71247069651049 53.741916144267236,93.46420199002999 84.11778179102697,380.86662310937214 c49.068706044765726,429.9353291541379 44.39549594526424,497.6968755969096 -37.38568079601199,507.0432957959126 c-32.71247069651049,4.6732100995015005 -72.43475654227323,-7.0098151492522485 -84.11778179102697,-23.366050497507498 z" id="svg_9" fill="#616161"/>
<path d="M2000.8149575740717,1008.3612220660416 c-39.72228584576274,-37.38568079601199 -142.5329080347957,-453.30137965164533 -128.51327773629123,-516.3897159949155 c4.6732100995015005,-21.029445447756743 25.702655547258246,-51.40531109451649 49.068706044765726,-65.42494139302099 c70.09815149252248,-44.39549594526424 119.1668575372882,14.019630298504497 172.90877368155546,210.29445447756746 c65.42494139302099,240.67032012432722 67.76154644277175,350.49075746261246 9.346420199002997,383.2032281591229 c-58.41512624376873,30.375865646759742 -63.08833634327023,30.375865646759742 -102.81062218903298,-11.683025248753749 z" id="svg_10" fill="#616161"/>
<path d="M975.0453407334921,807.4131877874765 c-51.40531109451649,-28.039260597008994 -84.11778179102697,-149.54272318404796 -102.81062218903298,-373.85680796011997 c-14.019630298504497,-163.56235348255245 -11.683025248753749,-182.25519388055847 30.375865646759742,-203.28463932831517 c88.79099189052847,-49.068706044765726 137.8596979352942,18.692840398005995 170.57216863180471,233.66050497507493 c14.019630298504497,105.14722723878373 37.38568079601199,210.29445447756746 46.732100995014996,231.3238999253242 c14.019630298504497,23.366050497507498 9.346420199002997,53.741916144267236 -14.019630298504497,86.45438684077773 c-39.72228584576274,56.07852119401799 -70.09815149252248,63.08833634327023 -130.84988278604197,25.702655547258246 z" id="svg_11" fill="#616161"/>
<path d="M3785.981215583644,791.0569524392215 c-51.40531109451649,-42.058890895513485 -165.8989585323032,-474.33082509940215 -165.8989585323032,-626.2101533332008 c0,-65.42494139302099 9.346420199002997,-81.78117674127623 63.08833634327023,-93.46420199002999 c84.11778179102697,-23.366050497507498 112.15704238803598,23.366050497507498 170.57216863180471,292.0756312188436 c28.039260597008994,123.84006763678971 60.751731293519484,259.36316052233315 72.43475654227323,299.0854463680959 c25.702655547258246,84.11778179102697 16.356235348255247,112.15704238803598 -49.068706044765726,147.20611813429724 c-30.375865646759742,16.356235348255247 -53.741916144267236,11.683025248753749 -91.12759694027923,-18.692840398005995 z" id="svg_12" fill="#616161"/>
<path d="M2479.8189927729745,604.1285484591615 c-46.732100995014996,-46.732100995014996 -130.84988278604197,-366.8469928108676 -116.83025248753746,-453.30137965164533 c9.346420199002997,-67.76154644277175 77.10796664177472,-107.48383228853447 130.84988278604197,-74.77136159202398 c42.058890895513485,28.039260597008994 156.5525383333002,436.9451443033902 135.5230928855435,490.6870604476574 c-7.0098151492522485,16.356235348255247 -32.71247069651049,42.058890895513485 -58.41512624376873,56.07852119401799 c-37.38568079601199,18.692840398005995 -56.07852119401799,16.356235348255247 -91.12759694027923,-18.692840398005995 z" id="svg_13" fill="#616161"/>
<path d="M1365.258384041868,576.0892878621527 c-53.741916144267236,-58.41512624376873 -109.82043733828522,-322.4514968656034 -79.44457169152548,-378.53001805962145 c25.702655547258246,-49.068706044765726 121.50346258703897,-56.07852119401799 154.21593328354945,-11.683025248753749 c14.019630298504497,14.019630298504497 42.058890895513485,105.14722723878373 65.42494139302099,200.94803427856442 c39.72228584576274,168.23556358205394 37.38568079601199,175.24537873130623 -2.3366050497507493,205.62124437806597 c-56.07852119401799,42.058890895513485 -88.79099189052847,37.38568079601199 -137.8596979352942,-16.356235348255247 z" id="svg_14" fill="#616161"/>
</g></g></svg>