<svg xmlns="http://www.w3.org/2000/svg" version="1.0" width="500" height="500" preserveAspectRatio="xMidYMid meet"><rect id="backgroundrect" width="100%" height="100%" x="0" y="0" fill="none" stroke="none" style="" class=""/>


<g class="currentLayer" style=""><title>Layer 1</title><g transform="translate(0,502) scale(0.10000000149011612,-0.10000000149011612) " fill="#616161" stroke="none" id="svg_1" class="" fill-opacity="1">
<path d="M1722.2553914487394,4751.736420856251 c-286.1653074850126,-43.689359921375974 -543.9325310211309,-183.49531166977903 -747.088054655529,-408.49551526486533 c-67.71850787813275,-72.08744387027033 -144.17488774054067,-176.9419076815727 -172.572971689435,-233.73807557936146 c-34.95148793710077,-69.90297587420154 -87.37871984275195,-124.5146757759215 -174.7574396855039,-183.49531166977903 c-259.95169153218706,-176.9419076815727 -377.9129633199022,-382.2818993120396 -391.0197712963149,-672.8161427891897 c-6.553403988206396,-120.14573978378392 2.1844679960687983,-216.26233161081106 26.21361595282558,-299.27211546142536 c32.76701994103197,-111.4078677995087 32.76701994103197,-126.69914377199032 2.1844679960687983,-174.7574396855039 c-48.058295913513575,-72.08744387027033 -65.53403988206394,-266.50509552039335 -34.95148793710077,-380.0974313159709 c32.76701994103197,-115.77680379164632 148.5438237326783,-249.029351551843 273.05849950859977,-308.0099874457005 c91.74765583488951,-45.87382791744476 120.14573978378392,-45.87382791744476 1909.2250285641298,-45.87382791744476 c1225.486545794596,0 1834.9531166977908,6.553403988206396 1876.4580086230978,24.029147956756788 c194.41765165012305,72.08744387027033 452.18487518624124,474.0295551469293 498.058703103686,775.4861386044237 c56.79616789778876,362.62168734742056 -244.66041555970543,803.8842225533177 -605.0976349110571,891.2629423960695 c-39.32042392923837,8.737871984275193 -85.19425184668314,52.42723190565116 -137.6214837523343,133.25254776019668 c-135.4370157562655,203.15552363439824 -321.1167954221133,321.1167954221133 -574.515082966094,364.80615534348937 c-126.69914377199032,21.844679960687987 -172.572971689435,19.660211964619187 -290.5342434771502,-8.737871984275193 c-76.45637986240794,-19.660211964619187 -155.0972277208847,-41.50489192530716 -174.7574396855039,-50.24276390958236 c-26.21361595282558,-8.737871984275193 -50.24276390958236,8.737871984275193 -83.00978385061433,63.34957188599516 c-69.90297587420154,113.59233579557753 -281.796371492875,299.27211546142536 -432.5246632216221,377.9129633199022 c-225.00020359508628,120.14573978378392 -515.5344470722364,172.572971689435 -766.7482666201482,135.4370157562655 z" id="svg_2" fill="#616161"/>
<path d="M3980.9952993838774,1866.0541980493683 c-43.689359921375974,-65.53403988206394 -166.01956770122865,-417.2333872491405 -166.01956770122865,-474.0295551469293 c0,-24.029147956756788 19.660211964619187,-54.61169990171996 43.689359921375974,-67.71850787813275 c76.45637986240794,-41.50489192530716 122.33020777985271,8.737871984275193 185.67977966584786,194.41765165012305 c30.58255194496318,96.11659182702715 76.45637986240794,198.78658764226063 100.48552781916472,229.36913958722386 c21.844679960687987,28.39808394889438 41.50489192530716,65.53403988206394 41.50489192530716,83.00978385061433 c0,89.56318783882072 -152.91275972481588,115.77680379164632 -205.33999163046704,34.95148793710077 z" id="svg_3" fill="#616161"/>
<path d="M2189.731542607463,1844.2095180886802 c-15.29127597248159,-28.39808394889438 -45.87382791744476,-122.33020777985271 -67.71850787813275,-209.70892762260465 c-41.50489192530716,-174.7574396855039 -28.39808394889438,-222.8157355990174 67.71850787813275,-222.8157355990174 c63.34957188599516,0 80.82531585454555,32.76701994103197 128.8836117680591,244.66041555970543 c32.76701994103197,137.6214837523343 34.95148793710077,174.7574396855039 10.922339980343994,200.97105563832943 c-39.32042392923837,50.24276390958236 -102.66999581523352,43.689359921375974 -139.8059517484031,-13.10680797641279 z" id="svg_4" fill="#616161"/>
<path d="M2738.0330096207304,1831.1027101122677 c-17.475743968550386,-19.660211964619187 -69.90297587420154,-196.60211964619188 -115.77680379164632,-391.0197712963149 c-67.71850787813275,-294.90317946928775 -76.45637986240794,-358.2527513552829 -54.61169990171996,-386.65083530417724 c37.135955933169576,-43.689359921375974 98.30105982309594,-43.689359921375974 133.25254776019668,-2.1844679960687983 c15.29127597248159,17.475743968550386 65.53403988206394,192.2331836540543 111.4078677995087,386.65083530417724 c80.82531585454555,329.85466740638856 83.00978385061433,353.8838153631454 50.24276390958236,393.20423929238376 c-45.87382791744476,50.24276390958236 -78.64084785847675,50.24276390958236 -124.5146757759215,0 z" id="svg_5" fill="#616161"/>
<path d="M3378.082132468888,1815.8114341397854 c-30.58255194496318,-37.135955933169576 -281.796371492875,-1020.1465541641288 -283.98083948894384,-1107.525274006881 c0,-65.53403988206394 61.16510388992636,-113.59233579557753 117.9612717877151,-91.74765583488951 c41.50489192530716,15.29127597248159 52.42723190565116,52.42723190565116 176.9419076815727,554.8548710014747 c54.61169990171996,222.8157355990174 115.77680379164632,450.00040719017255 135.4370157562655,506.7965750879613 c30.58255194496318,85.19425184668314 30.58255194496318,107.03893180737111 8.737871984275193,135.4370157562655 c-37.135955933169576,43.689359921375974 -120.14573978378392,45.87382791744476 -155.0972277208847,2.1844679960687983 z" id="svg_6" fill="#616161"/>
<path d="M1195.7986043961591,1763.3842022341344 c-48.058295913513575,-48.058295913513575 -74.27191186633915,-209.70892762260465 -76.45637986240794,-460.9227471705164 c-2.1844679960687983,-159.4661637130223 0,-163.8350997051599 54.61169990171996,-170.3885036933663 c30.58255194496318,-4.368935992137598 65.53403988206394,6.553403988206396 78.64084785847675,21.844679960687987 c13.10680797641279,15.29127597248159 39.32042392923837,155.0972277208847 58.98063589385755,312.37892343783824 c34.95148793710077,266.50509552039335 34.95148793710077,283.98083948894384 -2.1844679960687983,310.1944554417694 c-50.24276390958236,37.135955933169576 -65.53403988206394,34.95148793710077 -113.59233579557753,-13.10680797641279 z" id="svg_7" fill="#616161"/>
<path d="M1687.3039035116387,1763.3842022341344 c-26.21361595282558,-28.39808394889438 -58.98063589385755,-168.20403569729743 -107.03893180737111,-456.5538111783789 c-56.79616789778876,-349.5148793710078 -63.34957188599516,-421.60232324127804 -39.32042392923837,-450.00040719017255 c37.135955933169576,-43.689359921375974 98.30105982309594,-45.87382791744476 131.06807976412787,-4.368935992137598 c15.29127597248159,17.475743968550386 50.24276390958236,176.9419076815727 80.82531585454555,356.06828335921415 c28.39808394889438,176.9419076815727 63.34957188599516,369.1750913356269 76.45637986240794,428.15572722948446 c19.660211964619187,78.64084785847675 17.475743968550386,111.4078677995087 -2.1844679960687983,135.4370157562655 c-37.135955933169576,45.87382791744476 -96.11659182702715,41.50489192530716 -139.8059517484031,-8.737871984275193 z" id="svg_8" fill="#616161"/>
<path d="M719.5845812531608,1734.9861182852396 c-26.21361595282558,-28.39808394889438 -93.93212383095832,-557.0393389975436 -93.93212383095832,-714.3210347144972 c0,-111.4078677995087 58.98063589385755,-152.91275972481588 128.8836117680591,-93.93212383095832 c37.135955933169576,30.58255194496318 50.24276390958236,87.37871984275195 78.64084785847675,356.06828335921415 c45.87382791744476,401.94211127665886 41.50489192530716,465.291683162654 -34.95148793710077,474.0295551469293 c-30.58255194496318,4.368935992137598 -67.71850787813275,-6.553403988206396 -78.64084785847675,-21.844679960687987 z" id="svg_9" fill="#616161"/>
<path d="M2039.0032508787153,1051.2476355157064 c-37.135955933169576,-34.95148793710077 -133.25254776019668,-423.78679123734685 -120.14573978378392,-482.76742713120433 c4.368935992137598,-19.660211964619187 24.029147956756788,-48.058295913513575 45.87382791744476,-61.16510388992636 c65.53403988206394,-41.50489192530716 111.4078677995087,13.10680797641279 161.6506317090911,196.60211964619188 c61.16510388992636,225.00020359508628 63.34957188599516,327.6701994103198 8.737871984275193,358.2527513552829 c-54.61169990171996,28.39808394889438 -58.98063589385755,28.39808394889438 -96.11659182702715,-10.922339980343994 z" id="svg_10" fill="#616161"/>
<path d="M1080.021800604512,863.3833878537893 c-48.058295913513575,-26.21361595282558 -78.64084785847675,-139.8059517484031 -96.11659182702715,-349.5148793710078 c-13.10680797641279,-152.91275972481588 -10.922339980343994,-170.3885036933663 28.39808394889438,-190.04871565798544 c83.00978385061433,-45.87382791744476 128.8836117680591,17.475743968550386 159.4661637130223,218.44679960687984 c13.10680797641279,98.30105982309594 34.95148793710077,196.60211964619188 43.689359921375974,216.26233161081106 c13.10680797641279,21.844679960687987 8.737871984275193,50.24276390958236 -13.10680797641279,80.82531585454555 c-37.135955933169576,52.42723190565116 -65.53403988206394,58.98063589385755 -122.33020777985271,24.029147956756788 z" id="svg_11" fill="#616161"/>
<path d="M3707.936799875277,848.0921118813078 c-48.058295913513575,-39.32042392923837 -155.0972277208847,-443.4470032019661 -155.0972277208847,-585.4374229464379 c0,-61.16510388992636 8.737871984275193,-76.45637986240794 58.98063589385755,-87.37871984275195 c78.64084785847675,-21.844679960687987 104.85446381130232,21.844679960687987 159.4661637130223,273.05849950859977 c26.21361595282558,115.77680379164632 56.79616789778876,242.47594756363657 67.71850787813275,279.6119034968062 c24.029147956756788,78.64084785847675 15.29127597248159,104.85446381130232 -45.87382791744476,137.6214837523343 c-28.39808394889438,15.29127597248159 -50.24276390958236,10.922339980343994 -85.19425184668314,-17.475743968550386 z" id="svg_12" fill="#616161"/>
<path d="M2486.819190072818,673.3346721958039 c-43.689359921375974,-43.689359921375974 -122.33020777985271,-342.9614753828013 -109.22339980343992,-423.78679123734685 c8.737871984275193,-63.34957188599516 72.08744387027033,-100.48552781916472 122.33020777985271,-69.90297587420154 c39.32042392923837,26.21361595282558 146.35935573660947,408.49551526486533 126.69914377199032,458.7382791744477 c-6.553403988206396,15.29127597248159 -30.58255194496318,39.32042392923837 -54.61169990171996,52.42723190565116 c-34.95148793710077,17.475743968550386 -52.42723190565116,15.29127597248159 -85.19425184668314,-17.475743968550386 z" id="svg_13" fill="#616161"/>
<path d="M1444.8279559480022,647.1210562429785 c-50.24276390958236,-54.61169990171996 -102.66999581523352,-301.45658345749416 -74.27191186633915,-353.8838153631454 c24.029147956756788,-45.87382791744476 113.59233579557753,-52.42723190565116 144.17488774054067,-10.922339980343994 c13.10680797641279,13.10680797641279 39.32042392923837,98.30105982309594 61.16510388992636,187.86424766191664 c37.135955933169576,157.2816957169535 34.95148793710077,163.8350997051599 -2.1844679960687983,192.2331836540543 c-52.42723190565116,39.32042392923837 -83.00978385061433,34.95148793710077 -128.8836117680591,-15.29127597248159 z" id="svg_14" fill="#616161"/>
</g></g></svg>