<svg xmlns="http://www.w3.org/2000/svg" version="1.0" width="503.000000" height="502.000000" preserveAspectRatio="xMidYMid meet"><rect id="backgroundrect" width="100%" height="100%" x="0" y="0" fill="none" stroke="none"/>


<g class="currentLayer" style=""><title>Layer 1</title><g transform="translate(0,502) scale(0.10000000149011612,-0.10000000149011612) " fill="#616161" stroke="none" id="svg_1" class="selected" fill-opacity="1">
<path d="M2172 3459 c-131 -20 -249 -84 -342 -187 -31 -33 -66 -81 -79 -107 -16 -32 -40 -57 -80 -84 -119 -81 -173 -175 -179 -308 -3 -55 1 -99 12 -137 15 -51 15 -58 1 -80 -22 -33 -30 -122 -16 -174 15 -53 68 -114 125 -141 42 -21 55 -21 874 -21 561 0 840 3 859 11 89 33 207 217 228 355 26 166 -112 368 -277 408 -18 4 -39 24 -63 61 -62 93 -147 147 -263 167 -58 10 -79 9 -133 -4 -35 -9 -71 -19 -80 -23 -12 -4 -23 4 -38 29 -32 52 -129 137 -198 173 -103 55 -236 79 -351 62z" id="svg_2" fill="#616161"/>
<path d="M3206 2138 c-20 -30 -76 -191 -76 -217 0 -11 9 -25 20 -31 35 -19 56 4 85 89 14 44 35 91 46 105 10 13 19 30 19 38 0 41 -70 53 -94 16z" id="svg_3" fill="#616161"/>
<path d="M2386 2128 c-7 -13 -21 -56 -31 -96 -19 -80 -13 -102 31 -102 29 0 37 15 59 112 15 63 16 80 5 92 -18 23 -47 20 -64 -6z" id="svg_4" fill="#616161"/>
<path d="M2637 2122 c-8 -9 -32 -90 -53 -179 -31 -135 -35 -164 -25 -177 17 -20 45 -20 61 -1 7 8 30 88 51 177 37 151 38 162 23 180 -21 23 -36 23 -57 0z" id="svg_5" fill="#616161"/>
<path d="M2930 2115 c-14 -17 -129 -467 -130 -507 0 -30 28 -52 54 -42 19 7 24 24 81 254 25 102 53 206 62 232 14 39 14 49 4 62 -17 20 -55 21 -71 1z" id="svg_6" fill="#616161"/>
<path d="M1931 2091 c-22 -22 -34 -96 -35 -211 -1 -73 0 -75 25 -78 14 -2 30 3 36 10 6 7 18 71 27 143 16 122 16 130 -1 142 -23 17 -30 16 -52 -6z" id="svg_7" fill="#616161"/>
<path d="M2156 2091 c-12 -13 -27 -77 -49 -209 -26 -160 -29 -193 -18 -206 17 -20 45 -21 60 -2 7 8 23 81 37 163 13 81 29 169 35 196 9 36 8 51 -1 62 -17 21 -44 19 -64 -4z" id="svg_8" fill="#616161"/>
<path d="M1713 2078 c-12 -13 -43 -255 -43 -327 0 -51 27 -70 59 -43 17 14 23 40 36 163 21 184 19 213 -16 217 -14 2 -31 -3 -36 -10z" id="svg_9" fill="#616161"/>
<path d="M2317 1765 c-17 -16 -61 -194 -55 -221 2 -9 11 -22 21 -28 30 -19 51 6 74 90 28 103 29 150 4 164 -25 13 -27 13 -44 -5z" id="svg_10" fill="#616161"/>
<path d="M1878 1679 c-22 -12 -36 -64 -44 -160 -6 -70 -5 -78 13 -87 38 -21 59 8 73 100 6 45 16 90 20 99 6 10 4 23 -6 37 -17 24 -30 27 -56 11z" id="svg_11" fill="#616161"/>
<path d="M3081 1672 c-22 -18 -71 -203 -71 -268 0 -28 4 -35 27 -40 36 -10 48 10 73 125 12 53 26 111 31 128 11 36 7 48 -21 63 -13 7 -23 5 -39 -8z" id="svg_12" fill="#616161"/>
<path d="M2522 1592 c-20 -20 -56 -157 -50 -194 4 -29 33 -46 56 -32 18 12 67 187 58 210 -3 7 -14 18 -25 24 -16 8 -24 7 -39 -8z" id="svg_13" fill="#616161"/>
<path d="M2045 1580 c-23 -25 -47 -138 -34 -162 11 -21 52 -24 66 -5 6 6 18 45 28 86 17 72 16 75 -1 88 -24 18 -38 16 -59 -7z" id="svg_14" fill="#616161"/>
</g></g></svg>