<svg xmlns="http://www.w3.org/2000/svg" version="1.0" width="500" height="500" preserveAspectRatio="xMidYMid meet"><rect id="backgroundrect" width="100%" height="100%" x="0" y="0" fill="none" stroke="none" style="" class=""/>


<g class="currentLayer" style=""><title>Layer 1</title><g transform="translate(0,509) scale(0.10000000149011612,-0.10000000149011612) " fill="#616161" stroke="none" id="svg_1" class="selected" fill-opacity="1">
<path d="M1514.9585965101871,5004.189989134013 c-378.71429926114104,-73.24191636654142 -662.7500237069969,-273.3173952214839 -862.825502561939,-605.5856011770131 c-194.71631424275648,-326.9090413433432 -205.43464346712835,-794.9427508075836 -25.009434856867806,-1143.2884505996708 c46.44609330561163,-89.3194102030993 167.92049118182663,-248.30796036461604 250.09434856867801,-328.6954295474054 l62.523587142169504,-58.95081073404555 l-58.95081073404555,-78.60108097872738 c-100.03773942747122,-132.19272710058698 -139.3382799168349,-259.02628958898794 -130.40633889652494,-439.45149819924865 c8.931941020309928,-201.86186705900442 78.60108097872738,-344.77292338396325 255.45351318086392,-526.9845201982857 l125.04717428433901,-130.40633889652494 l1505.9252560242535,-1.786388204061986 l1505.9252560242535,-1.786388204061986 l83.96024559091332,51.8052579177976 c180.42520861026057,110.75606865184311 248.30796036461604,312.61793571084746 166.13410297776463,496.6159207292321 c-35.72776408123971,78.60108097872738 -35.72776408123971,89.3194102030993 -10.718329224371915,164.3477147737027 c39.30054048936369,114.32884505996708 33.94137587717771,323.33626493521933 -10.718329224371915,443.02427460737243 c-42.87331689748766,114.32884505996708 -180.42520861026057,275.1037834255458 -296.54044187428957,342.9865351799013 c-55.378034325921554,32.15498767311574 -91.10579840716126,71.45552816247942 -121.47439787621501,132.19272710058698 c-55.378034325921554,108.96968044778112 -234.01685473212012,300.1132182824136 -348.3456997920872,373.3551346489549 c-144.69744452902088,92.89218661122327 -323.33626493521933,146.48383273308283 -501.97508534141815,148.27022093714479 l-153.62938554933075,3.572776408123972 l-10.718329224371915,100.03773942747122 c-48.23248150967364,453.74260383174436 -387.64624028145107,869.9710553781871 -823.5249620725754,1009.3093352950224 c-114.32884505996708,37.5141522853017 -189.35714963057052,48.23248150967364 -350.13208799614915,51.8052579177976 c-112.54245685590513,3.572776408123972 -225.08491371181026,1.786388204061986 -250.09434856867801,-1.786388204061986 zm357.2776408123972,-255.45351318086392 c409.08289873019476,-67.88275175435543 716.3416698288562,-367.9959700367691 794.9427508075836,-777.0788687669639 c14.291105632495885,-76.81469277466537 26.795823060929784,-150.0566091412068 26.795823060929784,-162.56132656964073 c0,-14.291105632495885 -50.01886971373561,-51.8052579177976 -110.75606865184311,-83.96024559091332 c-107.18329224371914,-57.16442252998354 -278.6765598336698,-207.2210316711904 -346.55931158802525,-303.68599469053754 l-33.94137587717771,-50.01886971373561 l-80.38746918278933,30.368599469053752 c-117.9016214680911,42.87331689748766 -339.4137587717773,39.30054048936369 -464.46093305611623,-10.718329224371915 c-114.32884505996708,-42.87331689748766 -280.4629480377318,-182.21159681432252 -330.4818177514674,-276.8901716296077 c-25.009434856867806,-46.44609330561163 -53.591646121859576,-69.66913995841745 -96.46496301934727,-82.17385738685135 c-53.591646121859576,-14.291105632495885 -69.66913995841745,-10.718329224371915 -132.19272710058698,35.72776408123971 c-146.48383273308283,107.18329224371914 -285.8221126499177,353.7048644042732 -328.6954295474054,582.3625545242072 c-25.009434856867806,137.5518917127729 -25.009434856867806,166.13410297776463 0,301.8996064864756 c64.30997534623148,346.55931158802525 266.17184240523596,600.2264365648272 584.1489427282694,732.4191636654143 c175.06604399807458,73.24191636654142 341.2001469758392,92.89218661122327 518.0525791779759,64.30997534623148 z" id="svg_2" fill="#616161"/>
<path d="M4001.610976564472,1561.8199199065648 c-21.43665844874383,-23.223046652805817 -66.09636355029349,-121.47439787621501 -100.03773942747122,-219.72574909962432 c-53.591646121859576,-153.62938554933075 -58.95081073404555,-182.21159681432252 -39.30054048936369,-212.58019628337632 c32.15498767311574,-48.23248150967364 85.74663379497532,-53.591646121859576 119.688009672153,-14.291105632495885 c16.07749383655787,17.863882040619856 50.01886971373561,96.46496301934727 78.60108097872738,175.06604399807458 c26.795823060929784,78.60108097872738 60.737198938107504,155.4157737533927 73.24191636654142,171.49326758995065 c35.72776408123971,41.086928693425676 30.368599469053752,101.8241276315332 -8.931941020309928,123.26078608027701 c-51.8052579177976,26.795823060929784 -80.38746918278933,21.43665844874383 -123.26078608027701,-23.223046652805817 z" id="svg_3" fill="#616161"/>
<path d="M2506.40404976459,1508.2282737847054 c-12.504717428433903,-30.368599469053752 -33.94137587717771,-107.18329224371914 -46.44609330561163,-167.92049118182663 c-21.43665844874383,-101.8241276315332 -19.650270244681845,-114.32884505996708 10.718329224371915,-148.27022093714479 c67.88275175435543,-75.0283045706034 117.9016214680911,-26.795823060929784 166.13410297776463,164.3477147737027 c30.368599469053752,121.47439787621501 32.15498767311574,141.12466812089684 8.931941020309928,173.27965579401263 c-41.086928693425676,58.95081073404555 -108.96968044778112,48.23248150967364 -139.3382799168349,-21.43665844874383 z" id="svg_4" fill="#616161"/>
<path d="M2965.50581820852,1526.092155825325 c-23.223046652805817,-26.795823060929784 -146.48383273308283,-525.1981319942237 -146.48383273308283,-591.2944955445172 c0,-21.43665844874383 16.07749383655787,-55.378034325921554 33.94137587717771,-71.45552816247942 c53.591646121859576,-48.23248150967364 103.6105158355952,-10.718329224371915 133.97911530464896,101.8241276315332 c75.0283045706034,269.74461881335986 123.26078608027701,518.0525791779759 105.39690403965716,546.6347904429678 c-23.223046652805817,37.5141522853017 -100.03773942747122,46.44609330561163 -126.83356248840097,14.291105632495885 z" id="svg_5" fill="#616161"/>
<path d="M3512.140608651487,1513.5874383968912 c-39.30054048936369,-30.368599469053752 -60.737198938107504,-96.46496301934727 -157.20216195745476,-482.32481509673613 c-107.18329224371914,-432.3059453830007 -110.75606865184311,-448.3834392195584 -80.38746918278933,-482.32481509673613 c37.5141522853017,-42.87331689748766 85.74663379497532,-46.44609330561163 116.11523326402906,-8.931941020309928 c16.07749383655787,19.650270244681845 148.27022093714479,505.547861749542 244.73518395649208,898.553266643179 c5.359164612185958,25.009434856867806 -1.786388204061986,53.591646121859576 -21.43665844874383,75.0283045706034 c-39.30054048936369,44.65970510154965 -46.44609330561163,44.65970510154965 -101.8241276315332,0 z" id="svg_6" fill="#616161"/>
<path d="M2115.185033075014,1472.5005097034652 c-33.94137587717771,-33.94137587717771 -48.23248150967364,-89.3194102030993 -87.53302199903729,-335.84098236365327 c-26.795823060929784,-162.56132656964073 -48.23248150967364,-319.7634885270955 -48.23248150967364,-348.3456997920872 c0,-58.95081073404555 28.58221126499177,-96.46496301934727 71.45552816247942,-96.46496301934727 c62.523587142169504,0 85.74663379497532,62.523587142169504 132.19272710058698,357.2776408123972 c26.795823060929784,162.56132656964073 57.16442252998354,316.19071211897136 67.88275175435543,344.77292338396325 c16.07749383655787,41.086928693425676 14.291105632495885,55.378034325921554 -12.504717428433903,83.96024559091332 c-41.086928693425676,46.44609330561163 -73.24191636654142,44.65970510154965 -123.26078608027701,-5.359164612185958 z" id="svg_7" fill="#616161"/>
<path d="M1702.5293579366958,1459.9957922750314 c-21.43665844874383,-23.223046652805817 -39.30054048936369,-94.67857481528526 -55.378034325921554,-217.93936089556223 c-32.15498767311574,-250.09434856867801 -32.15498767311574,-259.02628958898794 21.43665844874383,-294.7540536702276 c46.44609330561163,-30.368599469053752 48.23248150967364,-28.58221126499177 87.53302199903729,16.07749383655787 c30.368599469053752,35.72776408123971 42.87331689748766,78.60108097872738 51.8052579177976,194.71631424275648 c7.145552816247944,82.17385738685135 21.43665844874383,176.8524322021366 30.368599469053752,209.00741987525237 c16.07749383655787,50.01886971373561 14.291105632495885,66.09636355029349 -12.504717428433903,94.67857481528526 c-39.30054048936369,42.87331689748766 -82.17385738685135,42.87331689748766 -123.26078608027701,-1.786388204061986 z" id="svg_8" fill="#616161"/>
<path d="M1330.9606114918024,1438.5591338262873 c-35.72776408123971,-35.72776408123971 -44.65970510154965,-78.60108097872738 -73.24191636654142,-334.05459415959126 l-32.15498767311574,-292.96766546616567 l37.5141522853017,-35.72776408123971 c51.8052579177976,-51.8052579177976 121.47439787621501,-19.650270244681845 133.97911530464896,62.523587142169504 c26.795823060929784,155.4157737533927 64.30997534623148,569.8578370957734 55.378034325921554,585.9353309323313 c-5.359164612185958,8.931941020309928 -26.795823060929784,26.795823060929784 -46.44609330561163,35.72776408123971 c-26.795823060929784,16.07749383655787 -42.87331689748766,10.718329224371915 -75.0283045706034,-21.43665844874383 z" id="svg_9" fill="#616161"/>
<path d="M2392.0752047046226,881.2060141589484 c-12.504717428433903,-14.291105632495885 -41.086928693425676,-107.18329224371914 -66.09636355029349,-207.2210316711904 c-41.086928693425676,-173.27965579401263 -41.086928693425676,-185.78437322244653 -14.291105632495885,-216.15297269150034 c37.5141522853017,-42.87331689748766 82.17385738685135,-42.87331689748766 117.9016214680911,-1.786388204061986 c16.07749383655787,16.07749383655787 46.44609330561163,108.96968044778112 67.88275175435543,205.43464346712835 c39.30054048936369,167.92049118182663 39.30054048936369,175.06604399807458 8.931941020309928,209.00741987525237 c-37.5141522853017,41.086928693425676 -85.74663379497532,46.44609330561163 -114.32884505996708,10.718329224371915 z" id="svg_10" fill="#616161"/>
<path d="M1591.7732892848526,702.5671937527496 c-21.43665844874383,-26.795823060929784 -42.87331689748766,-101.8241276315332 -57.16442252998354,-205.43464346712835 c-21.43665844874383,-151.84299734526877 -19.650270244681845,-167.92049118182663 8.931941020309928,-200.07547885494245 c16.07749383655787,-17.863882040619856 41.086928693425676,-33.94137587717771 53.591646121859576,-33.94137587717771 c42.87331689748766,0 92.89218661122327,89.3194102030993 105.39690403965716,191.1435378346325 c5.359164612185958,57.16442252998354 19.650270244681845,133.97911530464896 30.368599469053752,169.70687938588864 c14.291105632495885,51.8052579177976 14.291105632495885,73.24191636654142 -3.572776408123972,94.67857481528526 c-33.94137587717771,39.30054048936369 -100.03773942747122,32.15498767311574 -137.5518917127729,-16.07749383655787 z" id="svg_11" fill="#616161"/>
<path d="M3751.5166279957934,700.7808055486879 c-30.368599469053752,-37.5141522853017 -78.60108097872738,-214.36658448743827 -121.47439787621501,-432.3059453830007 c-14.291105632495885,-69.66913995841745 14.291105632495885,-112.54245685590513 75.0283045706034,-112.54245685590513 c58.95081073404555,0 85.74663379497532,53.591646121859576 132.19272710058698,259.02628958898794 c62.523587142169504,276.8901716296077 62.523587142169504,280.4629480377318 25.009434856867806,307.2587710986615 c-46.44609330561163,33.94137587717771 -71.45552816247942,28.58221126499177 -110.75606865184311,-21.43665844874383 z" id="svg_12" fill="#616161"/>
<path d="M2760.0711747413916,572.1608548562245 c-14.291105632495885,-17.863882040619856 -44.65970510154965,-100.03773942747122 -66.09636355029349,-182.21159681432252 c-44.65970510154965,-173.27965579401263 -32.15498767311574,-234.01685473212012 44.65970510154965,-234.01685473212012 c60.737198938107504,0 91.10579840716126,53.591646121859576 126.83356248840097,235.8032429361822 c26.795823060929784,128.61995069246296 28.58221126499177,158.9885501615167 8.931941020309928,182.21159681432252 c-32.15498767311574,37.5141522853017 -78.60108097872738,35.72776408123971 -114.32884505996708,-1.786388204061986 z" id="svg_13" fill="#616161"/>
<path d="M1913.3231660160102,545.3650317952952 c-21.43665844874383,-23.223046652805817 -48.23248150967364,-91.10579840716126 -60.737198938107504,-151.84299734526877 c-21.43665844874383,-101.8241276315332 -19.650270244681845,-114.32884505996708 10.718329224371915,-148.27022093714479 c42.87331689748766,-46.44609330561163 69.66913995841745,-44.65970510154965 110.75606865184311,7.145552816247944 c48.23248150967364,58.95081073404555 87.53302199903729,269.74461881335986 58.95081073404555,305.47238289459955 c-32.15498767311574,37.5141522853017 -76.81469277466537,33.94137587717771 -119.688009672153,-12.504717428433903 z" id="svg_14" fill="#616161"/>
</g></g></svg>