<svg xmlns="http://www.w3.org/2000/svg" version="1.0" width="510.000000" height="509.000000" preserveAspectRatio="xMidYMid meet"><rect id="backgroundrect" width="100%" height="100%" x="0" y="0" fill="none" stroke="none"/>


<g class="currentLayer" style=""><title>Layer 1</title><g transform="translate(0,509) scale(0.10000000149011612,-0.10000000149011612) " fill="#616161" stroke="none" id="svg_1" class="selected" fill-opacity="1">
<path d="M1980 4014 c-212 -41 -371 -153 -483 -339 -109 -183 -115 -445 -14 -640 26 -50 94 -139 140 -184 l35 -33 -33 -44 c-56 -74 -78 -145 -73 -246 5 -113 44 -193 143 -295 l70 -73 843 -1 843 -1 47 29 c101 62 139 175 93 278 -20 44 -20 50 -6 92 22 64 19 181 -6 248 -24 64 -101 154 -166 192 -31 18 -51 40 -68 74 -31 61 -131 168 -195 209 -81 52 -181 82 -281 83 l-86 2 -6 56 c-27 254 -217 487 -461 565 -64 21 -106 27 -196 29 -63 2 -126 1 -140 -1z m200 -143 c229 -38 401 -206 445 -435 8 -43 15 -84 15 -91 0 -8 -28 -29 -62 -47 -60 -32 -156 -116 -194 -170 l-19 -28 -45 17 c-66 24 -190 22 -260 -6 -64 -24 -157 -102 -185 -155 -14 -26 -30 -39 -54 -46 -30 -8 -39 -6 -74 20 -82 60 -160 198 -184 326 -14 77 -14 93 0 169 36 194 149 336 327 410 98 41 191 52 290 36z" id="svg_2" fill="#616161"/>
<path d="M3372 2087 c-12 -13 -37 -68 -56 -123 -30 -86 -33 -102 -22 -119 18 -27 48 -30 67 -8 9 10 28 54 44 98 15 44 34 87 41 96 20 23 17 57 -5 69 -29 15 -45 12 -69 -13z" id="svg_3" fill="#616161"/>
<path d="M2535 2057 c-7 -17 -19 -60 -26 -94 -12 -57 -11 -64 6 -83 38 -42 66 -15 93 92 17 68 18 79 5 97 -23 33 -61 27 -78 -12z" id="svg_4" fill="#616161"/>
<path d="M2792 2067 c-13 -15 -82 -294 -82 -331 0 -12 9 -31 19 -40 30 -27 58 -6 75 57 42 151 69 290 59 306 -13 21 -56 26 -71 8z" id="svg_5" fill="#616161"/>
<path d="M3098 2060 c-22 -17 -34 -54 -88 -270 -60 -242 -62 -251 -45 -270 21 -24 48 -26 65 -5 9 11 83 283 137 503 3 14 -1 30 -12 42 -22 25 -26 25 -57 0z" id="svg_6" fill="#616161"/>
<path d="M2316 2037 c-19 -19 -27 -50 -49 -188 -15 -91 -27 -179 -27 -195 0 -33 16 -54 40 -54 35 0 48 35 74 200 15 91 32 177 38 193 9 23 8 31 -7 47 -23 26 -41 25 -69 -3z" id="svg_7" fill="#616161"/>
<path d="M2085 2030 c-12 -13 -22 -53 -31 -122 -18 -140 -18 -145 12 -165 26 -17 27 -16 49 9 17 20 24 44 29 109 4 46 12 99 17 117 9 28 8 37 -7 53 -22 24 -46 24 -69 -1z" id="svg_8" fill="#616161"/>
<path d="M1877 2018 c-20 -20 -25 -44 -41 -187 l-18 -164 21 -20 c29 -29 68 -11 75 35 15 87 36 319 31 328 -3 5 -15 15 -26 20 -15 9 -24 6 -42 -12z" id="svg_9" fill="#616161"/>
<path d="M2471 1706 c-7 -8 -23 -60 -37 -116 -23 -97 -23 -104 -8 -121 21 -24 46 -24 66 -1 9 9 26 61 38 115 22 94 22 98 5 117 -21 23 -48 26 -64 6z" id="svg_10" fill="#616161"/>
<path d="M2023 1606 c-12 -15 -24 -57 -32 -115 -12 -85 -11 -94 5 -112 9 -10 23 -19 30 -19 24 0 52 50 59 107 3 32 11 75 17 95 8 29 8 41 -2 53 -19 22 -56 18 -77 -9z" id="svg_11" fill="#616161"/>
<path d="M3232 1605 c-17 -21 -44 -120 -68 -242 -8 -39 8 -63 42 -63 33 0 48 30 74 145 35 155 35 157 14 172 -26 19 -40 16 -62 -12z" id="svg_12" fill="#616161"/>
<path d="M2677 1533 c-8 -10 -25 -56 -37 -102 -25 -97 -18 -131 25 -131 34 0 51 30 71 132 15 72 16 89 5 102 -18 21 -44 20 -64 -1z" id="svg_13" fill="#616161"/>
<path d="M2203 1518 c-12 -13 -27 -51 -34 -85 -12 -57 -11 -64 6 -83 24 -26 39 -25 62 4 27 33 49 151 33 171 -18 21 -43 19 -67 -7z" id="svg_14" fill="#616161"/>
</g></g></svg>