<svg xmlns="http://www.w3.org/2000/svg" version="1.0" width="514.000000" height="514.000000" preserveAspectRatio="xMidYMid meet"><rect id="backgroundrect" width="100%" height="100%" x="0" y="0" fill="none" stroke="none"/>


<g class="currentLayer" style=""><title>Layer 1</title><g transform="translate(0,514) scale(0.10000000149011612,-0.10000000149011612) " fill="#616161" stroke="none" id="svg_1" class="selected" fill-opacity="1">
<path d="M2189 4065 c-4 -3 2 -30 12 -58 30 -80 29 -250 -1 -342 -61 -191 -166 -304 -347 -377 -69 -27 -89 -30 -230 -35 -84 -4 -156 -10 -159 -14 -8 -13 37 -150 62 -190 12 -20 48 -63 78 -96 55 -60 55 -60 36 -78 -11 -10 -35 -48 -53 -84 -29 -60 -32 -73 -31 -161 0 -75 5 -105 22 -143 32 -72 96 -160 147 -205 l47 -41 821 -3 c773 -3 825 -2 867 15 119 48 178 188 126 299 -17 35 -17 41 -1 105 42 164 -26 330 -173 424 -27 17 -56 49 -78 86 -104 174 -289 283 -480 283 l-71 0 -7 62 c-4 34 -14 82 -23 107 -8 25 -16 51 -17 57 -1 6 -17 40 -35 75 -44 82 -193 231 -276 276 -48 25 -77 33 -145 38 -47 4 -88 4 -91 0z m288 -263 c69 -70 124 -173 147 -279 23 -106 24 -104 -48 -141 -44 -23 -89 -59 -141 -113 l-76 -80 -51 16 c-101 30 -222 14 -308 -40 -43 -27 -125 -114 -134 -142 -4 -14 -19 -23 -42 -28 -29 -5 -43 -1 -73 19 -34 24 -81 77 -81 91 0 3 16 5 35 5 60 0 198 32 250 58 178 89 315 240 376 414 25 72 29 97 29 196 l0 113 29 -15 c16 -9 55 -42 88 -74z" id="svg_2" fill="#616161"/>
<path d="M3372 2137 c-12 -13 -37 -68 -56 -123 -30 -86 -33 -102 -22 -119 18 -27 48 -30 67 -8 9 10 28 54 44 98 15 44 34 87 41 96 20 23 17 57 -5 69 -29 15 -45 12 -69 -13z" id="svg_3" fill="#616161"/>
<path d="M2535 2107 c-7 -17 -19 -60 -26 -94 -12 -57 -11 -64 6 -83 38 -42 66 -15 93 92 17 68 18 79 5 97 -23 33 -61 27 -78 -12z" id="svg_4" fill="#616161"/>
<path d="M2792 2117 c-13 -15 -82 -294 -82 -331 0 -12 9 -31 19 -40 30 -27 58 -6 75 57 42 151 69 290 59 306 -13 21 -56 26 -71 8z" id="svg_5" fill="#616161"/>
<path d="M3098 2110 c-22 -17 -34 -54 -88 -270 -60 -242 -62 -251 -45 -270 21 -24 48 -26 65 -5 9 11 83 283 137 503 3 14 -1 30 -12 42 -22 25 -26 25 -57 0z" id="svg_6" fill="#616161"/>
<path d="M2316 2087 c-19 -19 -27 -50 -49 -188 -15 -91 -27 -179 -27 -195 0 -33 16 -54 40 -54 35 0 48 35 74 200 15 91 32 177 38 193 9 23 8 31 -7 47 -23 26 -41 25 -69 -3z" id="svg_7" fill="#616161"/>
<path d="M2085 2080 c-12 -13 -22 -53 -31 -122 -18 -140 -18 -145 12 -165 26 -17 27 -16 49 9 17 20 24 44 29 109 4 46 12 99 17 117 9 28 8 37 -7 53 -22 24 -46 24 -69 -1z" id="svg_8" fill="#616161"/>
<path d="M1877 2068 c-20 -20 -25 -44 -41 -187 l-18 -164 21 -20 c29 -29 68 -11 75 35 15 87 36 319 31 328 -3 5 -15 15 -26 20 -15 9 -24 6 -42 -12z" id="svg_9" fill="#616161"/>
<path d="M2471 1756 c-7 -8 -23 -60 -37 -116 -23 -97 -23 -104 -8 -121 21 -24 46 -24 66 -1 9 9 26 61 38 115 22 94 22 98 5 117 -21 23 -48 26 -64 6z" id="svg_10" fill="#616161"/>
<path d="M2023 1656 c-12 -15 -24 -57 -32 -115 -12 -85 -11 -94 5 -112 9 -10 23 -19 30 -19 24 0 52 50 59 107 3 32 11 75 17 95 8 29 8 41 -2 53 -19 22 -56 18 -77 -9z" id="svg_11" fill="#616161"/>
<path d="M3232 1655 c-17 -21 -44 -120 -68 -242 -8 -39 8 -63 42 -63 33 0 48 30 74 145 35 155 35 157 14 172 -26 19 -40 16 -62 -12z" id="svg_12" fill="#616161"/>
<path d="M2677 1583 c-8 -10 -25 -56 -37 -102 -25 -97 -18 -131 25 -131 34 0 51 30 71 132 15 72 16 89 5 102 -18 21 -44 20 -64 -1z" id="svg_13" fill="#616161"/>
<path d="M2203 1568 c-12 -13 -27 -51 -34 -85 -12 -57 -11 -64 6 -83 24 -26 39 -25 62 4 27 33 49 151 33 171 -18 21 -43 19 -67 -7z" id="svg_14" fill="#616161"/>
</g></g></svg>