<svg xmlns="http://www.w3.org/2000/svg" version="1.0" width="500" height="500" preserveAspectRatio="xMidYMid meet"><rect id="backgroundrect" width="100%" height="100%" x="0" y="0" fill="none" stroke="none" style="" class=""/>


<g class="currentLayer" style=""><title>Layer 1</title><g transform="translate(0,514) scale(0.10000000149011612,-0.10000000149011612) " fill="#616161" stroke="none" id="svg_1" class="selected" fill-opacity="1">
<path d="M1856.9470015458362,5061.923564161662 c-7.166800599289449,-5.3751004494670855 3.5834002996447247,-53.75100449467085 21.500401797868342,-103.918608689697 c53.75100449467085,-143.33601198578896 51.9593043448485,-447.9250374555905 -1.7917001498223613,-612.7614512392477 c-109.29370913916406,-342.2147286160711 -297.422224870512,-544.676845545998 -621.7199519883595,-675.4709564830304 c-123.62731033774297,-48.375904045203775 -159.4613133341902,-53.75100449467085 -412.09103445914326,-62.709505243782665 c-150.50281258507837,-7.166800599289449 -279.50522337228847,-17.91700149822362 -284.8803238217555,-25.083802097513068 c-14.333601198578895,-23.292101947690703 66.2929055434274,-268.75502247335424 111.08540928898643,-340.42302846624875 c21.500401797868342,-35.83400299644724 86.00160719147337,-112.87710943880879 139.75261168614423,-172.00321438294674 c98.54350824022991,-107.5020089893417 98.54350824022991,-107.5020089893417 64.50120539360502,-139.75261168614423 c-19.708701648045977,-17.91700149822362 -62.709505243782665,-86.00160719147337 -94.96010794058519,-150.50281258507837 c-51.9593043448485,-107.5020089893417 -57.33440479431558,-130.7941109370324 -55.54270464449321,-288.4637241214002 c0,-134.37751123667712 8.95850074911181,-188.12851573134802 39.417403296091955,-256.2131214245978 c57.33440479431558,-129.00241078721004 172.00321438294674,-286.6720239715779 263.37992202388716,-367.2985307135842 l84.20990704165101,-73.45970614271684 l1470.985823004159,-5.3751004494670855 c1384.9842158126855,-5.3751004494670855 1478.1526236034485,-3.5834002996447247 1553.4040298959876,26.875502247335426 c213.21231782886107,86.00160719147337 318.9226266683804,336.83962816660403 225.75421887761757,535.7183447968862 c-30.45890254698015,62.709505243782665 -30.45890254698015,73.45970614271684 -1.7917001498223613,188.12851573134802 c75.25140629253919,293.8388245708673 -46.58420389538141,591.2610494413794 -309.96412591926867,759.6808635246815 c-48.375904045203775,30.45890254698015 -100.33520839005227,87.79330734129573 -139.75261168614423,154.08621288472312 c-186.33681558152563,311.755826069091 -517.8013432986625,507.05114239972846 -860.0160719147336,507.05114239972846 l-127.2107106373877,0 l-12.541901048756534,111.08540928898643 c-7.166800599289449,60.917805093960304 -25.083802097513068,146.91941228543365 -41.20910344591432,191.7119160309927 c-14.333601198578895,44.79250374555905 -28.66720239715779,91.37670764094045 -30.45890254698015,102.12690853987465 c-1.7917001498223613,10.750200898934171 -30.45890254698015,71.66800599289448 -62.709505243782665,134.37751123667712 c-78.83480659218391,146.91941228543365 -345.79812891571584,413.8827346089656 -494.5092413509719,494.5092413509719 c-86.00160719147337,44.79250374555905 -137.96091153632185,59.126104944137936 -259.79652172424244,68.08460569324976 c-84.20990704165101,7.166800599289449 -157.66961318436782,7.166800599289449 -163.04471363383493,0 zm516.0096431488402,-471.2171394032812 c123.62731033774297,-125.41901048756533 222.17081857797285,-309.96412591926867 263.37992202388716,-499.8843418004389 c41.20910344591432,-189.92021588117038 43.000803595736684,-186.33681558152563 -86.00160719147337,-252.62972112495302 c-78.83480659218391,-41.20910344591432 -159.4613133341902,-105.71030883951933 -252.62972112495302,-202.46211692992688 l-136.1692113864995,-143.33601198578896 l-91.37670764094045,28.66720239715779 c-180.96171513205854,53.75100449467085 -397.75743326056437,25.083802097513068 -551.8436461452874,-71.66800599289448 c-77.04310644236156,-48.375904045203775 -223.96251872779524,-204.2538170797493 -240.0878200761965,-254.4214212747754 c-7.166800599289449,-25.083802097513068 -34.04230284662488,-41.20910344591432 -75.25140629253919,-50.167604195026136 c-51.9593043448485,-8.95850074911181 -77.04310644236156,-1.7917001498223613 -130.7941109370324,34.04230284662488 c-60.917805093960304,43.000803595736684 -145.1277121356113,137.96091153632185 -145.1277121356113,163.04471363383493 c0,5.3751004494670855 28.66720239715779,8.95850074911181 62.709505243782665,8.95850074911181 c107.5020089893417,0 354.75662966482764,57.33440479431558 447.9250374555905,103.918608689697 c318.9226266683804,159.4613133341902 564.3855471940439,430.0080359573668 673.6792563332081,741.7638620264579 c44.79250374555905,129.00241078721004 51.9593043448485,173.79491453276913 51.9593043448485,351.1732293651829 l0,202.46211692992688 l51.9593043448485,-26.875502247335426 c28.66720239715779,-16.125301348401255 98.54350824022991,-75.25140629253919 157.66961318436782,-132.5858110868548 z" id="svg_2" fill="#616161"/>
<path d="M3976.5282787856904,1607.5256753041483 c-21.500401797868342,-23.292101947690703 -66.2929055434274,-121.83561018792061 -100.33520839005227,-220.37911842815052 c-53.75100449467085,-154.08621288472312 -59.126104944137936,-182.7534152818809 -39.417403296091955,-213.21231782886107 c32.25060269680251,-48.375904045203775 86.00160719147337,-53.75100449467085 120.04391003809825,-14.333601198578895 c16.125301348401255,17.91700149822362 50.167604195026136,96.75180809040755 78.83480659218391,175.58661468259146 c26.875502247335426,78.83480659218391 60.917805093960304,155.8779130345455 73.45970614271684,172.00321438294674 c35.83400299644724,41.20910344591432 30.45890254698015,102.12690853987465 -8.95850074911181,123.62731033774297 c-51.9593043448485,26.875502247335426 -80.62650674200627,21.500401797868342 -123.62731033774297,-23.292101947690703 z" id="svg_3" fill="#616161"/>
<path d="M2476.8752533843735,1553.7746708094774 c-12.541901048756534,-30.45890254698015 -34.04230284662488,-107.5020089893417 -46.58420389538141,-168.41981408330201 c-21.500401797868342,-102.12690853987465 -19.708701648045977,-114.66880958863116 10.750200898934171,-148.711112435256 c68.08460569324976,-75.25140629253919 118.25220988827587,-26.875502247335426 166.62811393347965,164.8364137836573 c30.45890254698015,121.83561018792061 32.25060269680251,141.5443118359666 8.95850074911181,173.79491453276913 c-41.20910344591432,59.126104944137936 -109.29370913916406,48.375904045203775 -139.75261168614423,-21.500401797868342 z" id="svg_4" fill="#616161"/>
<path d="M2937.3421918887198,1571.6916723077009 c-23.292101947690703,-26.875502247335426 -146.91941228543365,-526.7598440477743 -146.91941228543365,-593.0527495912017 c0,-21.500401797868342 16.125301348401255,-55.54270464449321 34.04230284662488,-71.66800599289448 c53.75100449467085,-48.375904045203775 103.918608689697,-10.750200898934171 134.37751123667712,102.12690853987465 c75.25140629253919,270.5467226231766 123.62731033774297,519.5930434484849 105.71030883951933,548.2602458456428 c-23.292101947690703,37.62570314626959 -100.33520839005227,46.58420389538141 -127.2107106373877,14.333601198578895 z" id="svg_5" fill="#616161"/>
<path d="M3485.602437734363,1559.1497712589446 c-39.417403296091955,-30.45890254698015 -60.917805093960304,-96.75180809040755 -157.66961318436782,-483.75904045203765 c-107.5020089893417,-433.59143625701154 -111.08540928898643,-449.71673760541285 -80.62650674200627,-483.75904045203765 c37.62570314626959,-43.000803595736684 86.00160719147337,-46.58420389538141 116.46050973845352,-8.95850074911181 c16.125301348401255,19.708701648045977 148.711112435256,507.05114239972846 245.46292052566358,901.2251753606481 c5.3751004494670855,25.083802097513068 -1.7917001498223613,53.75100449467085 -21.500401797868342,75.25140629253919 c-39.417403296091955,44.79250374555905 -46.58420389538141,44.79250374555905 -102.12690853987465,0 z" id="svg_6" fill="#616161"/>
<path d="M2084.492920573276,1517.9406678130301 c-34.04230284662488,-34.04230284662488 -48.375904045203775,-89.5850074911181 -87.79330734129573,-336.83962816660403 c-26.875502247335426,-163.04471363383493 -48.375904045203775,-320.7143268182028 -48.375904045203775,-349.3815292153606 c0,-59.126104944137936 28.66720239715779,-96.75180809040755 71.66800599289448,-96.75180809040755 c62.709505243782665,0 86.00160719147337,62.709505243782665 132.5858110868548,358.3400299644724 c26.875502247335426,163.04471363383493 57.33440479431558,317.13092651855806 68.08460569324976,345.79812891571584 c16.125301348401255,41.20910344591432 14.333601198578895,55.54270464449321 -12.541901048756534,84.20990704165101 c-41.20910344591432,46.58420389538141 -73.45970614271684,44.79250374555905 -123.62731033774297,-5.3751004494670855 z" id="svg_7" fill="#616161"/>
<path d="M1670.6101859643106,1505.3987667642737 c-21.500401797868342,-23.292101947690703 -39.417403296091955,-94.96010794058519 -55.54270464449321,-218.58741827832813 c-32.25060269680251,-250.83802097513066 -32.25060269680251,-259.79652172424244 21.500401797868342,-295.6305247206897 c46.58420389538141,-30.45890254698015 48.375904045203775,-28.66720239715779 87.79330734129573,16.125301348401255 c30.45890254698015,35.83400299644724 43.000803595736684,78.83480659218391 51.9593043448485,195.29531633063743 c7.166800599289449,82.41820689182865 21.500401797868342,177.37831483241382 30.45890254698015,209.62891752921632 c16.125301348401255,50.167604195026136 14.333601198578895,66.2929055434274 -12.541901048756534,94.96010794058519 c-39.417403296091955,43.000803595736684 -82.41820689182865,43.000803595736684 -123.62731033774297,-1.7917001498223613 z" id="svg_8" fill="#616161"/>
<path d="M1297.9365548012597,1483.8983649664053 c-35.83400299644724,-35.83400299644724 -44.79250374555905,-78.83480659218391 -73.45970614271684,-335.04792801678167 l-32.25060269680251,-293.8388245708673 l37.62570314626959,-35.83400299644724 c51.9593043448485,-51.9593043448485 121.83561018792061,-19.708701648045977 134.37751123667712,62.709505243782665 c26.875502247335426,155.8779130345455 64.50120539360502,571.5523477933334 55.54270464449321,587.6776491417346 c-5.3751004494670855,8.95850074911181 -26.875502247335426,26.875502247335426 -46.58420389538141,35.83400299644724 c-26.875502247335426,16.125301348401255 -43.000803595736684,10.750200898934171 -75.25140629253919,-21.500401797868342 z" id="svg_9" fill="#616161"/>
<path d="M2362.2064437957424,924.8879182218284 c-12.541901048756534,-14.333601198578895 -41.20910344591432,-107.5020089893417 -66.2929055434274,-207.837217379394 c-41.20910344591432,-173.79491453276913 -41.20910344591432,-186.33681558152563 -14.333601198578895,-216.79571812850577 c37.62570314626959,-43.000803595736684 82.41820689182865,-43.000803595736684 118.25220988827587,-1.7917001498223613 c16.125301348401255,16.125301348401255 46.58420389538141,109.29370913916406 68.08460569324976,206.04551722957163 c39.417403296091955,168.41981408330201 39.417403296091955,175.58661468259146 8.95850074911181,209.62891752921632 c-37.62570314626959,41.20910344591432 -86.00160719147337,46.58420389538141 -114.66880958863116,10.750200898934171 z" id="svg_10" fill="#616161"/>
<path d="M1559.5247766753241,745.717903239592 c-21.500401797868342,-26.875502247335426 -43.000803595736684,-102.12690853987465 -57.33440479431558,-206.04551722957163 c-21.500401797868342,-152.29451273490074 -19.708701648045977,-168.41981408330201 8.95850074911181,-200.67041678010455 c16.125301348401255,-17.91700149822362 41.20910344591432,-34.04230284662488 53.75100449467085,-34.04230284662488 c43.000803595736684,0 93.16840779076281,89.5850074911181 105.71030883951933,191.7119160309927 c5.3751004494670855,57.33440479431558 19.708701648045977,134.37751123667712 30.45890254698015,170.21151423312438 c14.333601198578895,51.9593043448485 14.333601198578895,73.45970614271684 -3.5834002996447247,94.96010794058519 c-34.04230284662488,39.417403296091955 -100.33520839005227,32.25060269680251 -137.96091153632185,-16.125301348401255 z" id="svg_11" fill="#616161"/>
<path d="M3725.6902578105596,743.9262030897698 c-30.45890254698015,-37.62570314626959 -78.83480659218391,-215.0040179786834 -121.83561018792061,-433.59143625701154 c-14.333601198578895,-69.87630584307212 14.333601198578895,-112.87710943880879 75.25140629253919,-112.87710943880879 c59.126104944137936,0 86.00160719147337,53.75100449467085 132.5858110868548,259.79652172424244 c62.709505243782665,277.71352322246605 62.709505243782665,281.2969235221108 25.083802097513068,308.17242576944625 c-46.58420389538141,34.04230284662488 -71.66800599289448,28.66720239715779 -111.08540928898643,-21.500401797868342 z" id="svg_12" fill="#616161"/>
<path d="M2731.2966746591487,614.9237923025596 c-14.333601198578895,-17.91700149822362 -44.79250374555905,-100.33520839005227 -66.2929055434274,-182.7534152818809 c-44.79250374555905,-173.79491453276913 -32.25060269680251,-234.71271962672938 44.79250374555905,-234.71271962672938 c60.917805093960304,0 91.37670764094045,53.75100449467085 127.2107106373877,236.50441977655174 c26.875502247335426,129.00241078721004 28.66720239715779,159.4613133341902 8.95850074911181,182.7534152818809 c-32.25060269680251,37.62570314626959 -78.83480659218391,35.83400299644724 -114.66880958863116,-1.7917001498223613 z" id="svg_13" fill="#616161"/>
<path d="M1882.0308036433496,588.0482900552245 c-21.500401797868342,-23.292101947690703 -48.375904045203775,-91.37670764094045 -60.917805093960304,-152.29451273490074 c-21.500401797868342,-102.12690853987465 -19.708701648045977,-114.66880958863116 10.750200898934171,-148.711112435256 c43.000803595736684,-46.58420389538141 69.87630584307212,-44.79250374555905 111.08540928898643,7.166800599289449 c48.375904045203775,59.126104944137936 87.79330734129573,270.5467226231766 59.126104944137936,306.38072561962383 c-32.25060269680251,37.62570314626959 -77.04310644236156,34.04230284662488 -120.04391003809825,-12.541901048756534 z" id="svg_14" fill="#616161"/>
</g></g></svg>