<svg xmlns="http://www.w3.org/2000/svg" version="1.0" width="500" height="500" preserveAspectRatio="xMidYMid meet"><rect id="backgroundrect" width="100%" height="100%" x="0" y="0" fill="none" stroke="none" style="" class=""/>


<g class="currentLayer" style=""><title>Layer 1</title><g transform="translate(0,505) scale(0.10000000149011612,-0.10000000149011612) " fill="#616161" stroke="none" id="svg_1" class="selected" fill-opacity="1">
<path d="M3292.7880647203556,4905.677835563874 c-38.95148861121084,-50.08048535727109 -530.4821782288715,-550.8853389299819 -1090.6416811139036,-1114.754507397034 c-562.0143356760423,-563.8691684670523 -1027.5773662195622,-1034.9966973836024 -1034.9966973836024,-1047.9805269206727 c-29.677324656160646,-46.37081977525101 -14.838662328080323,-122.41896420666265 29.677324656160646,-155.80595444484337 c24.112826283130524,-20.403160701110444 183.628446309994,-72.33847884939156 352.4182302919076,-114.99963304262249 c168.78978398191364,-44.51598698424096 307.9022433076667,-83.4674755954518 307.9022433076667,-85.32230838646186 c0,-3.7096655820200812 -116.85446583363253,-480.4016928716004 -259.6765907414056,-1059.109523666733 c-142.8221249077731,-580.5626635861427 -259.6765907414056,-1072.0933532038032 -259.6765907414056,-1096.2061794869337 c0,-24.112826283130524 16.69349511909036,-59.35464931232129 37.0966558202008,-79.75781001343172 c77.90297722242168,-77.90297722242168 109.43513466959237,-59.35464931232129 467.4178633345301,309.7570760986767 c187.33811189201404,191.04777747403415 680.7236343006848,691.8526310467449 1098.0610122779437,1112.899674606024 c419.1922107682691,421.04704355927913 766.0459426871466,777.1749394332069 775.3201066421968,790.158768970277 c25.967659074140567,42.66115419323093 14.838662328080323,118.70929862464259 -24.112826283130524,153.95112165383335 c-22.25799349212048,20.403160701110444 -163.22528560888355,64.9191476853514 -344.9988991278675,111.28996746060241 c-168.78978398191364,44.51598698424096 -309.7570760986767,83.4674755954518 -313.46674168069677,87.1771411774719 c-5.564498373030121,3.7096655820200812 37.0966558202008,191.04777747403415 92.74163955050201,413.627712395239 c456.28886658846994,1827.0102991448896 443.3050370513996,1763.9459842505482 383.95038773907834,1823.3006335628695 c-66.77398047636144,66.77398047636144 -135.40279374373296,51.935318148281134 -217.0154365481747,-48.22565256626105 z" id="svg_2" fill="#616161"/>
</g></g></svg>