<svg xmlns="http://www.w3.org/2000/svg" version="1.0" width="505.000000" height="505.000000" preserveAspectRatio="xMidYMid meet"><rect id="backgroundrect" width="100%" height="100%" x="0" y="0" fill="none" stroke="none"/>


<g class="currentLayer" style=""><title>Layer 1</title><g transform="translate(0,505) scale(0.10000000149011612,-0.10000000149011612) " fill="#616161" stroke="none" id="svg_1" class="selected" fill-opacity="1">
<path d="M2984 3723 c-21 -27 -286 -297 -588 -601 -303 -304 -554 -558 -558 -565 -16 -25 -8 -66 16 -84 13 -11 99 -39 190 -62 91 -24 166 -45 166 -46 0 -2 -63 -259 -140 -571 -77 -313 -140 -578 -140 -591 0 -13 9 -32 20 -43 42 -42 59 -32 252 167 101 103 367 373 592 600 226 227 413 419 418 426 14 23 8 64 -13 83 -12 11 -88 35 -186 60 -91 24 -167 45 -169 47 -3 2 20 103 50 223 246 985 239 951 207 983 -36 36 -73 28 -117 -26z" id="svg_2" fill="#616161"/>
</g></g></svg>