<svg xmlns="http://www.w3.org/2000/svg" version="1.0" width="500" height="500" preserveAspectRatio="xMidYMid meet"><rect id="backgroundrect" width="100%" height="100%" x="0" y="0" fill="none" stroke="none" style="" class=""/>


<g class="currentLayer" style=""><title>Layer 1</title><g transform="translate(0,505) scale(0.10000000149011612,-0.10000000149011612) " fill="#616161" stroke="none" id="svg_1" class="" fill-opacity="1">
<path d="M2654.424894557846,4661.306376731659 c-34.77327099651804,-44.708491281237485 -473.57883357162666,-491.79340409361237 -973.6515879025053,-995.1778985193972 c-501.72862437833203,-503.38449442578514 -917.352006289095,-923.975486478908 -923.975486478908,-935.5665768110807 c-26.493920759251846,-41.396751186331 -13.246960379625923,-109.28742313191387 26.493920759251846,-139.09308398607217 c21.526310616892125,-18.214570521985642 163.9311346978708,-64.57893185067637 314.6153090161156,-102.6639429421009 c150.68417431824486,-39.740881138877754 274.87442787723785,-74.5141521353958 274.87442787723785,-76.17002218284907 c0,-3.3117400949064812 -104.31981298955414,-428.8703422903892 -231.8218066434536,-945.5017970958 c-127.5019936538995,-518.2873248528643 -231.8218066434536,-957.092887427973 -231.8218066434536,-978.619198044865 c0,-21.526310616892125 14.902830427079163,-52.98784151850369 33.11740094906481,-71.20241204048932 c69.54654199303609,-69.54654199303609 97.69633279974119,-52.98784151850369 417.27925195821655,276.5302979246911 c167.24287479277723,170.55461488768373 607.7043074153391,617.6395277000586 980.2750680923182,993.5220284719442 c374.2266307244323,375.8825007718856 683.8743295981883,693.8095498829077 692.1536798354545,705.4006402150802 c23.18218066434537,38.08501109142453 13.246960379625923,105.97568303700739 -21.526310616892125,137.43721393861892 c-19.870440569438877,18.214570521985642 -145.71656417588514,57.9554516608634 -307.9918288263027,99.35220284719442 c-150.68417431824486,39.740881138877754 -276.5302979246911,74.5141521353958 -279.84203801959757,77.82589223030229 c-4.96761014235972,3.3117400949064812 33.11740094906481,170.55461488768373 82.793502372662,369.2590205820726 c407.3440316734971,1631.0319967414418 395.75294134132446,1574.7324151280316 342.76509982282073,1627.720256646535 c-59.61132170831665,59.61132170831665 -120.87851346408655,46.36436132869074 -193.73679555202915,-43.05262123378425 z" id="svg_2" fill="#616161"/>
</g><g transform="translate(0,505) scale(0.10000000149011612,-0.10000000149011612) " fill="#616161" stroke="none" class="" fill-opacity="1" id="svg_3">
<path d="M3796.262410199487,2785.5210779217305 c-18.8447917301159,-24.229017938720453 -256.6481159434833,-266.519197325925 -527.6541684432453,-539.3199918952218 c-271.9034235345297,-272.800794569297 -497.143553261153,-500.7330374002226 -500.7330374002226,-507.0146346435946 c-14.357936556278789,-22.4342758691856 -7.178968278139394,-59.22648829465001 14.357936556278789,-75.3791669204636 c11.665823451976518,-9.871081382441666 88.83973244197503,-34.99747035592954 170.50049660581058,-55.637004155580314 c81.66076416383561,-21.536904834418184 148.96359177139243,-40.381696564534096 148.96359177139243,-41.27906759930153 c0,-1.794742069534849 -56.53437519034772,-232.41909800476284 -125.63194486743937,-512.3988608521992 c-69.09756967709167,-280.8771338822039 -125.63194486743937,-518.6804580955712 -125.63194486743937,-530.3462815475476 c0,-11.665823451976518 8.07633931290682,-28.715873112557578 17.947420695348484,-38.58695449499925 c37.6895834602318,-37.6895834602318 52.94489105127803,-28.715873112557578 226.13750076139087,149.86096280615985 c90.63447451150985,92.42921658104467 329.3351697596447,334.71939596824916 531.243652582315,538.4226208604546 c202.80585385743782,203.7032248922053 370.6142373589463,375.9984635675508 375.1010925327833,382.28006081092263 c12.563194486743946,20.639533799650764 7.178968278139394,57.431746225115155 -11.665823451976518,74.48179588569622 c-10.768452417209092,9.871081382441666 -78.96865105953333,31.407986216859843 -166.91101246674089,53.84226208604545 c-81.66076416383561,21.536904834418184 -149.86096280615985,40.381696564534096 -151.65570487569468,42.176438634068944 c-2.692113104302273,1.794742069534849 17.947420695348484,92.42921658104467 44.8685517383712,200.1137407531356 c220.75327455278628,883.9104692459129 214.47167730941436,853.3998540638202 185.75580419685681,882.115727176378 c-32.30535725162728,32.30535725162728 -65.50808553802197,25.12638897348789 -104.99241106778864,-23.331646903953036 z" id="svg_5" fill="#616161"/>
</g></g></svg>