<svg xmlns="http://www.w3.org/2000/svg" version="1.0" width="500" height="500" preserveAspectRatio="xMidYMid meet" style=""><rect id="backgroundrect" width="100%" height="100%" x="0" y="0" fill="none" stroke="none" style="" class=""/>


<g class="currentLayer" style=""><title>Layer 1</title><g transform="translate(0,458) scale(0.10000000149011612,-0.10000000149011612) " fill="#616161" stroke="none" id="svg_1" class="selected" fill-opacity="1">
<path d="M2483.6712028235734,4079.5637234576707 c-53.81966569046381,-22.76985856135008 -86.93945996151848,-97.28939567122303 -86.93945996151848,-198.71876562632795 l0,-70.37956282599113 l-76.5895242518139,31.04980712911375 c-43.46972998075924,18.62988427746824 -113.84929280675037,57.959639974345656 -157.3190227875096,86.93945996151848 c-66.23958854210932,45.53971712270016 -84.86947281957758,49.67969140658199 -128.33920280033684,31.04980712911375 c-66.23958854210932,-31.04980712911375 -99.35938281316398,-111.77930566480947 -72.44954996793207,-178.0188942069188 c22.76985856135008,-62.0996142582275 33.119794271054666,-68.30957568405022 248.39845703291,-159.38900992945045 l175.94890706497785,-74.51953710987296 l6.209961425822751,-571.3164511756928 l4.139974283881833,-573.3864383176339 l-356.0377884138375,374.66767269130577 c-196.64877848438704,206.9987141940916 -360.17776269771934,387.08759554295125 -364.3177369816013,401.57750553653767 c-4.139974283881833,14.489909993586414 18.62988427746824,107.63933138092762 49.67969140658199,206.9987141940916 l55.889652832404735,178.0188942069188 l-47.60970426464106,49.67969140658199 c-93.14942138734122,99.35938281316398 -198.71876562632795,41.39974283881832 -250.4684441748508,-132.47917708421863 l-26.909832845231904,-89.00944710345938 l-117.98926709063221,126.26921565839584 c-134.54916422615955,142.8291127939232 -196.64877848438704,159.38900992945045 -262.8883670264963,74.51953710987296 c-53.81966569046381,-66.23958854210932 -41.39974283881832,-105.56934423898672 70.37956282599113,-231.83855989738262 c86.93945996151848,-101.42936995510489 89.00944710345938,-105.56934423898672 43.46972998075924,-117.98926709063221 c-24.839845703290994,-6.209961425822751 -78.6595113937548,-12.419922851645502 -120.05925423257312,-12.419922851645502 c-140.75912565198226,0 -188.36882991662338,-130.40918994227772 -76.5895242518139,-213.20867561991435 c51.7496785485229,-37.25976855493648 66.23958854210932,-39.3297556968774 264.95835416843727,-14.489909993586414 c113.84929280675037,14.489909993586414 211.13868847797343,22.76985856135008 213.20867561991435,18.62988427746824 c4.139974283881833,-4.139974283881833 182.15886849080064,-194.57879134244607 399.50751839459673,-422.27737695594686 c215.27866276185523,-227.69858561350074 413.9974283881832,-440.90726123341517 440.90726123341517,-471.95706836252884 l49.67969140658199,-55.889652832404735 l-600.2962711628657,0 l-602.3662583048064,0 l-109.70931852286856,151.10906136168683 c-115.91927994869131,155.2490356455687 -175.94890706497785,188.36882991662338 -262.8883670264963,140.75912565198226 c-66.23958854210932,-35.189781412995565 -66.23958854210932,-97.28939567122303 -2.0699871419409166,-198.71876562632795 l60.02962711628656,-93.14942138734122 l-84.86947281957758,0 c-60.02962711628656,0 -97.28939567122303,-14.489909993586414 -132.47917708421863,-51.7496785485229 c-64.16960140016842,-62.0996142582275 -64.16960140016842,-82.79948567763664 0,-144.89909993586414 c35.189781412995565,-37.25976855493648 72.44954996793207,-51.7496785485229 126.26921565839584,-51.7496785485229 l78.6595113937548,0 l-117.98926709063221,-109.70931852286856 c-68.30957568405022,-64.16960140016842 -117.98926709063221,-126.26921565839584 -117.98926709063221,-151.10906136168683 c0,-49.67969140658199 80.72949853569573,-132.47917708421863 130.40918994227772,-132.47917708421863 c16.55989713552733,0 132.47917708421863,89.00944710345938 256.67840560067367,196.64877848438704 l223.55861132961894,196.64877848438704 l461.6071326528242,0 c252.53843131679167,0 459.53714551088325,-6.209961425822751 459.53714551088325,-12.419922851645502 c0,-12.419922851645502 -552.6865668982246,-623.0661297242158 -741.055396814848,-819.7149082086028 l-113.84929280675037,-117.98926709063221 l-165.59897135527328,62.0996142582275 c-209.0687013360325,74.51953710987296 -291.86818701366906,78.6595113937548 -337.4079041363692,8.279948567763665 c-64.16960140016842,-97.28939567122303 -10.34993570970458,-153.1790485036278 215.27866276185523,-225.62859847155988 c105.56934423898672,-35.189781412995565 128.33920280033684,-57.959639974345656 86.93945996151848,-84.86947281957758 c-33.119794271054666,-20.69987141940916 -22.76985856135008,-105.56934423898672 16.55989713552733,-140.75912565198226 c47.60970426464106,-43.46972998075924 124.199228516455,-45.53971712270016 169.73894563915516,-4.139974283881833 c33.119794271054666,31.04980712911375 37.25976855493648,22.76985856135008 49.67969140658199,-91.07943424540032 c16.55989713552733,-151.10906136168683 72.44954996793207,-229.76857275544162 159.38900992945045,-229.76857275544162 c78.6595113937548,0 151.10906136168683,70.37956282599113 132.47917708421863,130.40918994227772 c-8.279948567763665,24.839845703290994 -26.909832845231904,130.40918994227772 -43.46972998075924,231.83855989738262 c-16.55989713552733,103.4993570970458 -31.04980712911375,196.64877848438704 -35.189781412995565,209.0687013360325 c-4.139974283881833,20.69987141940916 848.6947281957758,981.1739052799942 869.3945996151849,981.1739052799942 c4.139974283881833,0 6.209961425822751,-291.86818701366906 6.209961425822751,-645.8359882855658 l0,-647.9059754275069 l-155.2490356455687,-89.00944710345938 c-171.80893278109596,-97.28939567122303 -211.13868847797343,-159.38900992945045 -144.89909993586414,-231.83855989738262 c60.02962711628656,-66.23958854210932 107.63933138092762,-68.30957568405022 206.9987141940916,-12.419922851645502 l93.14942138734122,51.7496785485229 l0,-47.60970426464106 c0,-26.909832845231904 18.62988427746824,-72.44954996793207 43.46972998075924,-103.4993570970458 c82.79948567763664,-105.56934423898672 225.62859847155988,-49.67969140658199 225.62859847155988,86.93945996151848 c0,37.25976855493648 4.139974283881833,66.23958854210932 10.34993570970458,66.23958854210932 c6.209961425822751,0 60.02962711628656,-33.119794271054666 120.05925423257312,-72.44954996793207 c149.0390742197459,-99.35938281316398 219.4186370457371,-109.70931852286856 293.93817415561017,-47.60970426464106 c78.6595113937548,70.37956282599113 60.02962711628656,151.10906136168683 -45.53971712270016,196.64877848438704 c-41.39974283881832,16.55989713552733 -142.8291127939232,76.5895242518139 -227.69858561350074,132.47917708421863 l-151.10906136168683,103.4993570970458 l0,649.9759625694476 l0,649.9759625694476 l397.4375312526559,-418.137402672065 c217.34864990379623,-229.76857275544162 457.4671583689424,-480.2370169302925 529.9167083368745,-554.7565540401654 l132.47917708421863,-138.68913851004135 l-57.959639974345656,-165.59897135527328 l-60.02962711628656,-167.66895849721425 l49.67969140658199,-51.7496785485229 c28.979819987172828,-28.979819987172828 70.37956282599113,-53.81966569046381 95.21940852928212,-53.81966569046381 c55.889652832404735,0 126.26921565839584,74.51953710987296 144.89909993586414,151.10906136168683 c16.55989713552733,64.16960140016842 24.839845703290994,66.23958854210932 80.72949853569573,24.839845703290994 c55.889652832404735,-43.46972998075924 128.33920280033684,-39.3297556968774 178.0188942069188,10.34993570970458 c53.81966569046381,53.81966569046381 51.7496785485229,86.93945996151848 -8.279948567763665,159.38900992945045 l-51.7496785485229,60.02962711628656 l144.89909993586414,39.3297556968774 c190.43881705856424,47.60970426464106 258.74839274261444,140.75912565198226 167.66895849721425,223.55861132961894 c-51.7496785485229,47.60970426464106 -130.40918994227772,43.46972998075924 -331.19794271054656,-14.489909993586414 l-169.73894563915516,-49.67969140658199 l-358.10777555577846,376.73765983324677 c-196.64877848438704,204.9287270521507 -411.92744124624227,432.62731266565146 -478.16702978835167,505.07686263358335 l-122.12924137451402,128.33920280033684 l525.7767340529927,0 l525.7767340529927,0 l91.07943424540032,-167.66895849721425 c99.35938281316398,-184.22885563274153 153.1790485036278,-227.69858561350074 240.11850846514625,-188.36882991662338 c78.6595113937548,37.25976855493648 89.00944710345938,117.98926709063221 24.839845703290994,233.9085470393235 c-68.30957568405022,120.05925423257312 -68.30957568405022,122.12924137451402 -4.139974283881833,122.12924137451402 c51.7496785485229,0 155.2490356455687,80.72949853569573 155.2490356455687,120.05925423257312 c0,57.959639974345656 -82.79948567763664,115.91927994869131 -178.0188942069188,126.26921565839584 l-101.42936995510489,12.419922851645502 l120.05925423257312,115.91927994869131 c134.54916422615955,132.47917708421863 153.1790485036278,202.8587399102098 66.23958854210932,258.74839274261444 c-93.14942138734122,60.02962711628656 -161.45899707139145,24.839845703290994 -345.687852704133,-190.43881705856424 l-167.66895849721425,-194.57879134244607 l-587.8763483112203,0 c-339.4778912783103,0 -585.8063611692792,8.279948567763665 -581.6663868853975,18.62988427746824 c4.139974283881833,10.34993570970458 223.55861132961894,256.67840560067367 490.5869526399971,550.6165797562836 l482.3070040722334,529.9167083368745 l169.73894563915516,-14.489909993586414 c91.07943424540032,-10.34993570970458 190.43881705856424,-14.489909993586414 219.4186370457371,-14.489909993586414 c51.7496785485229,2.0699871419409166 124.199228516455,72.44954996793207 124.199228516455,122.12924137451402 c0,55.889652832404735 -80.72949853569573,109.70931852286856 -186.29884277468244,124.199228516455 c-113.84929280675037,14.489909993586414 -122.12924137451402,24.839845703290994 -62.0996142582275,80.72949853569573 c82.79948567763664,74.51953710987296 28.979819987172828,217.34864990379623 -80.72949853569573,217.34864990379623 c-28.979819987172828,0 -76.5895242518139,-31.04980712911375 -117.98926709063221,-76.5895242518139 l-70.37956282599113,-74.51953710987296 l-31.04980712911375,74.51953710987296 c-16.55989713552733,41.39974283881832 -31.04980712911375,97.28939567122303 -31.04980712911375,124.199228516455 c0,111.77930566480947 -159.38900992945045,165.59897135527328 -231.83855989738262,76.5895242518139 c-53.81966569046381,-66.23958854210932 -45.53971712270016,-136.61915136810043 33.119794271054666,-322.9179941427829 l72.44954996793207,-163.52898421333236 l-68.30957568405022,-72.44954996793207 c-37.25976855493648,-39.3297556968774 -215.27866276185523,-235.97853418126442 -395.367544110715,-434.69729980759246 c-180.08888134885967,-198.71876562632795 -339.4778912783103,-376.73765983324677 -353.96780127189675,-393.2975569687741 c-24.839845703290994,-24.839845703290994 -28.979819987172828,62.0996142582275 -28.979819987172828,558.8965283240474 l0,589.9463354531609 l109.70931852286856,60.02962711628656 c238.0485213232053,132.47917708421863 293.93817415561017,209.0687013360325 204.9287270521507,287.72821272978734 c-53.81966569046381,47.60970426464106 -124.199228516455,43.46972998075924 -225.62859847155988,-16.55989713552733 l-89.00944710345938,-49.67969140658199 l0,80.72949853569573 c0,62.0996142582275 -12.419922851645502,89.00944710345938 -53.81966569046381,122.12924137451402 c-62.0996142582275,47.60970426464106 -62.0996142582275,47.60970426464106 -128.33920280033684,22.76985856135008 z" id="svg_2" fill="#616161"/>
</g></g></svg>