<svg xmlns="http://www.w3.org/2000/svg" version="1.0" width="500" height="500" preserveAspectRatio="xMidYMid meet" style=""><rect id="backgroundrect" width="100%" height="100%" x="0" y="0" fill="none" stroke="none" style="" class=""/>


<g class="currentLayer" style=""><title>Layer 1</title><g transform="translate(0,458) scale(0.10000000149011612,-0.10000000149011612) " fill="#616161" stroke="none" id="svg_1" class="" fill-opacity="1">
<path d="M2446.4838313556666,4517.447374779866 c-63.57892144826331,-26.89877445888064 -102.70441157027152,-114.93112723339905 -102.70441157027152,-234.75294073204915 l0,-83.1416665092674 l-90.47769590714395,36.68014698938269 c-51.35220578513576,22.008088193629604 -134.49387229440316,68.46960771351435 -185.84607807953893,102.70441157027152 c-78.25098024401639,53.79754891776128 -100.25906843764602,58.68823518301229 -151.6112742227818,36.68014698938269 c-78.25098024401639,-36.68014698938269 -117.37647036602458,-132.04852916177768 -85.58700964189295,-210.29950940579408 c26.89877445888064,-73.36029397876538 39.1254901220082,-80.6963233766419 293.44117591506154,-188.29142121216438 l207.85416627316852,-88.03235277451842 l7.3360293978765405,-674.9147046046414 l4.890686265251024,-677.3600477372671 l-420.5990188115881,442.6071070052177 c-232.30759759942367,244.53431326255128 -425.48970507683913,457.27916580097076 -430.38039134209026,474.3965677293494 c-4.890686265251024,17.117401928378587 22.008088193629604,127.15784289652662 58.68823518301229,244.53431326255128 l66.02426458088884,210.29950940579408 l-56.242892050386764,58.68823518301229 c-110.04044096814806,117.37647036602458 -234.75294073204915,48.90686265251025 -295.88651904768693,-156.50196048803278 l-31.789460724131654,-105.14975470289703 l-139.3845585596542,149.1659310901562 c-158.94730362065832,168.72867615116036 -232.30759759942367,188.29142121216438 -310.5585778434401,88.03235277451842 c-63.57892144826331,-78.25098024401639 -48.90686265251025,-124.7124997639011 83.1416665092674,-273.8784308540574 c102.70441157027152,-119.82181349865012 105.14975470289703,-124.7124997639011 51.35220578513576,-139.3845585596542 c-29.344117591506144,-7.3360293978765405 -92.92303903976946,-14.672058795753081 -141.8299016922797,-14.672058795753081 c-166.2833330185348,0 -222.52622506892166,-154.0566173554073 -90.47769590714395,-251.87034266042775 c61.13357831563782,-44.01617638725921 78.25098024401639,-46.46151951988473 313.00392097606556,-17.117401928378587 c134.49387229440316,17.117401928378587 249.4249995278022,26.89877445888064 251.87034266042775,22.008088193629604 c4.890686265251024,-4.890686265251024 215.19019567104513,-229.8622544667981 471.9512245967238,-498.8499990556044 c254.31568579305323,-268.9877445888063 489.06862652510256,-520.8580872492342 520.8580872492342,-557.5382342386168 l58.68823518301229,-66.02426458088884 l-709.1495084613987,0 l-711.5948515940239,0 l-129.60318602915214,178.51004868166237 c-136.9392154270287,183.40073494691342 -207.85416627316852,222.52622506892166 -310.5585778434401,166.2833330185348 c-78.25098024401639,-41.5708332546337 -78.25098024401639,-114.93112723339905 -2.4453431326255126,-234.75294073204915 l70.91495084613985,-110.04044096814806 l-100.25906843764602,0 c-70.91495084613985,0 -114.93112723339905,-17.117401928378587 -156.50196048803278,-61.13357831563782 c-75.8056371113909,-73.36029397876538 -75.8056371113909,-97.81372530502048 0,-171.1740192837859 c41.5708332546337,-44.01617638725921 85.58700964189295,-61.13357831563782 149.1659310901562,-61.13357831563782 l92.92303903976946,0 l-139.3845585596542,-129.60318602915214 c-80.6963233766419,-75.8056371113909 -139.3845585596542,-149.1659310901562 -139.3845585596542,-178.51004868166237 c0,-58.68823518301229 95.36838217239497,-156.50196048803278 154.0566173554073,-156.50196048803278 c19.562745061004097,0 156.50196048803278,105.14975470289703 303.2225484455636,232.30759759942367 l264.09705832355536,232.30759759942367 l545.3115185754891,0 c298.3318621803124,0 542.8661754428637,-7.3360293978765405 542.8661754428637,-14.672058795753081 c0,-14.672058795753081 -652.9066164110118,-736.0482829202792 -875.4328414799335,-968.3558805197029 l-134.49387229440316,-139.3845585596542 l-195.62745061004097,73.36029397876538 c-246.9796563951767,88.03235277451842 -344.7933817001972,92.92303903976946 -398.5909306179584,9.781372530502049 c-75.8056371113909,-114.93112723339905 -12.22671566312756,-180.9553918142879 254.31568579305323,-266.54240145618087 c124.7124997639011,-41.5708332546337 151.6112742227818,-68.46960771351435 102.70441157027152,-100.25906843764602 c-39.1254901220082,-24.453431326255124 -26.89877445888064,-124.7124997639011 19.562745061004097,-166.2833330185348 c56.242892050386764,-51.35220578513576 146.72058795753077,-53.79754891776128 200.51813687529204,-4.890686265251024 c39.1254901220082,36.68014698938269 44.01617638725921,26.89877445888064 58.68823518301229,-107.59509783552257 c19.562745061004097,-178.51004868166237 85.58700964189295,-271.43308772143183 188.29142121216438,-271.43308772143183 c92.92303903976946,0 178.51004868166237,83.1416665092674 156.50196048803278,154.0566173554073 c-9.781372530502049,29.344117591506144 -31.789460724131654,154.0566173554073 -51.35220578513576,273.8784308540574 c-19.562745061004097,122.26715663127564 -36.68014698938269,232.30759759942367 -41.5708332546337,246.9796563951767 c-4.890686265251024,24.453431326255124 1002.5906843764603,1159.092644864493 1027.0441157027153,1159.092644864493 c4.890686265251024,0 7.3360293978765405,-344.7933817001972 7.3360293978765405,-762.9470573791598 l0,-765.3924005117855 l-183.40073494691342,-105.14975470289703 c-202.96348000791747,-114.93112723339905 -249.4249995278022,-188.29142121216438 -171.1740192837859,-273.8784308540574 c70.91495084613985,-78.25098024401639 127.15784289652662,-80.6963233766419 244.53431326255128,-14.672058795753081 l110.04044096814806,61.13357831563782 l0,-56.242892050386764 c0,-31.789460724131654 22.008088193629604,-85.58700964189295 51.35220578513576,-122.26715663127564 c97.81372530502048,-124.7124997639011 266.54240145618087,-58.68823518301229 266.54240145618087,102.70441157027152 c0,44.01617638725921 4.890686265251024,78.25098024401639 12.22671566312756,78.25098024401639 c7.3360293978765405,0 70.91495084613985,-39.1254901220082 141.8299016922797,-85.58700964189295 c176.06470554903683,-117.37647036602458 259.2063720583043,-129.60318602915214 347.2387248328228,-56.242892050386764 c92.92303903976946,83.1416665092674 70.91495084613985,178.51004868166237 -53.79754891776128,232.30759759942367 c-48.90686265251025,19.562745061004097 -168.72867615116036,90.47769590714395 -268.9877445888063,156.50196048803278 l-178.51004868166237,122.26715663127564 l0,767.8377436444108 l0,767.8377436444108 l469.5058814640983,-493.9593127903534 c256.76102892567883,-271.43308772143183 540.4208323102382,-567.3196067691188 626.0078419521311,-655.3519595436372 l156.50196048803278,-163.8379898859093 l-68.46960771351435,-195.62745061004097 l-70.91495084613985,-198.07279374266653 l58.68823518301229,-61.13357831563782 c34.234803856757175,-34.234803856757175 83.1416665092674,-63.57892144826331 112.48578410077353,-63.57892144826331 c66.02426458088884,0 149.1659310901562,88.03235277451842 171.1740192837859,178.51004868166237 c19.562745061004097,75.8056371113909 29.344117591506144,78.25098024401639 95.36838217239497,29.344117591506144 c66.02426458088884,-51.35220578513576 151.6112742227818,-46.46151951988473 210.29950940579408,12.22671566312756 c63.57892144826331,63.57892144826331 61.13357831563782,102.70441157027152 -9.781372530502049,188.29142121216438 l-61.13357831563782,70.91495084613985 l171.1740192837859,46.46151951988473 c224.97156820154706,56.242892050386764 305.66789157818897,166.2833330185348 198.07279374266653,264.09705832355536 c-61.13357831563782,56.242892050386764 -154.0566173554073,51.35220578513576 -391.25490122008193,-17.117401928378587 l-200.51813687529204,-58.68823518301229 l-423.0443619442136,445.0524501378433 c-232.30759759942367,242.0889701299257 -486.6232833924769,511.0767147187321 -564.8742636364934,596.6637243606248 l-144.2752448249052,151.6112742227818 l621.1171556868802,0 l621.1171556868802,0 l107.59509783552257,-198.07279374266653 c117.37647036602458,-217.63553880367058 180.9553918142879,-268.9877445888063 283.6598033845594,-222.52622506892166 c92.92303903976946,44.01617638725921 105.14975470289703,139.3845585596542 29.344117591506144,276.32377398668285 c-80.6963233766419,141.8299016922797 -80.6963233766419,144.2752448249052 -4.890686265251024,144.2752448249052 c61.13357831563782,0 183.40073494691342,95.36838217239497 183.40073494691342,141.8299016922797 c0,68.46960771351435 -97.81372530502048,136.9392154270287 -210.29950940579408,149.1659310901562 l-119.82181349865012,14.672058795753081 l141.8299016922797,136.9392154270287 c158.94730362065832,156.50196048803278 180.9553918142879,239.64362699730026 78.25098024401639,305.66789157818897 c-110.04044096814806,70.91495084613985 -190.73676434478995,29.344117591506144 -408.37230314846056,-224.97156820154706 l-198.07279374266653,-229.8622544667981 l-694.4774496656456,0 c-401.0362737505841,0 -692.0321065330199,9.781372530502049 -687.141420267769,22.008088193629604 c4.890686265251024,12.22671566312756 264.09705832355536,303.2225484455636 579.5463224322465,650.4612732783863 l569.7649499017443,626.0078419521311 l200.51813687529204,-17.117401928378587 c107.59509783552257,-12.22671566312756 224.97156820154706,-17.117401928378587 259.2063720583043,-17.117401928378587 c61.13357831563782,2.4453431326255126 146.72058795753077,85.58700964189295 146.72058795753077,144.2752448249052 c0,66.02426458088884 -95.36838217239497,129.60318602915214 -220.08088193629612,146.72058795753077 c-134.49387229440316,17.117401928378587 -144.2752448249052,29.344117591506144 -73.36029397876538,95.36838217239497 c97.81372530502048,88.03235277451842 34.234803856757175,256.76102892567883 -95.36838217239497,256.76102892567883 c-34.234803856757175,0 -90.47769590714395,-36.68014698938269 -139.3845585596542,-90.47769590714395 l-83.1416665092674,-88.03235277451842 l-36.68014698938269,88.03235277451842 c-19.562745061004097,48.90686265251025 -36.68014698938269,114.93112723339905 -36.68014698938269,146.72058795753077 c0,132.04852916177768 -188.29142121216438,195.62745061004097 -273.8784308540574,90.47769590714395 c-63.57892144826331,-78.25098024401639 -53.79754891776128,-161.3926467532838 39.1254901220082,-381.4735286895799 l85.58700964189295,-193.18210747741549 l-80.6963233766419,-85.58700964189295 c-44.01617638725921,-46.46151951988473 -254.31568579305323,-278.7691171193084 -467.0605383314729,-513.5220578513577 c-212.74485253841956,-234.75294073204915 -401.0362737505841,-445.0524501378433 -418.1536756789627,-464.61519519884735 c-29.344117591506144,-29.344117591506144 -34.234803856757175,73.36029397876538 -34.234803856757175,660.2426458088884 l0,696.9227927982708 l129.60318602915214,70.91495084613985 c281.2144602519339,156.50196048803278 347.2387248328228,246.9796563951767 242.0889701299257,339.9026954349462 c-63.57892144826331,56.242892050386764 -146.72058795753077,51.35220578513576 -266.54240145618087,-19.562745061004097 l-105.14975470289703,-58.68823518301229 l0,95.36838217239497 c0,73.36029397876538 -14.672058795753081,105.14975470289703 -63.57892144826331,144.2752448249052 c-73.36029397876538,56.242892050386764 -73.36029397876538,56.242892050386764 -151.6112742227818,26.89877445888064 z" id="svg_2" fill="#616161"/>
</g></g></svg>