<svg xmlns="http://www.w3.org/2000/svg" version="1.0" width="458.000000" height="458.000000" preserveAspectRatio="xMidYMid meet"><rect id="backgroundrect" width="100%" height="100%" x="0" y="0" fill="none" stroke="none"/>


<g class="currentLayer" style=""><title>Layer 1</title><g transform="translate(0,458) scale(0.10000000149011612,-0.10000000149011612) " fill="#616161" stroke="none" id="svg_1" class="selected" fill-opacity="1">
<path d="M2252 3270 c-26 -11 -42 -47 -42 -96 l0 -34 -37 15 c-21 9 -55 28 -76 42 -32 22 -41 24 -62 15 -32 -15 -48 -54 -35 -86 11 -30 16 -33 120 -77 l85 -36 3 -276 2 -277 -172 181 c-95 100 -174 187 -176 194 -2 7 9 52 24 100 l27 86 -23 24 c-45 48 -96 20 -121 -64 l-13 -43 -57 61 c-65 69 -95 77 -127 36 -26 -32 -20 -51 34 -112 42 -49 43 -51 21 -57 -12 -3 -38 -6 -58 -6 -68 0 -91 -63 -37 -103 25 -18 32 -19 128 -7 55 7 102 11 103 9 2 -2 88 -94 193 -204 104 -110 200 -213 213 -228 l24 -27 -290 0 -291 0 -53 73 c-56 75 -85 91 -127 68 -32 -17 -32 -47 -1 -96 l29 -45 -41 0 c-29 0 -47 -7 -64 -25 -31 -30 -31 -40 0 -70 17 -18 35 -25 61 -25 l38 0 -57 -53 c-33 -31 -57 -61 -57 -73 0 -24 39 -64 63 -64 8 0 64 43 124 95 l108 95 223 0 c122 0 222 -3 222 -6 0 -6 -267 -301 -358 -396 l-55 -57 -80 30 c-101 36 -141 38 -163 4 -31 -47 -5 -74 104 -109 51 -17 62 -28 42 -41 -16 -10 -11 -51 8 -68 23 -21 60 -22 82 -2 16 15 18 11 24 -44 8 -73 35 -111 77 -111 38 0 73 34 64 63 -4 12 -13 63 -21 112 -8 50 -15 95 -17 101 -2 10 410 474 420 474 2 0 3 -141 3 -312 l0 -313 -75 -43 c-83 -47 -102 -77 -70 -112 29 -32 52 -33 100 -6 l45 25 0 -23 c0 -13 9 -35 21 -50 40 -51 109 -24 109 42 0 18 2 32 5 32 3 0 29 -16 58 -35 72 -48 106 -53 142 -23 38 34 29 73 -22 95 -20 8 -69 37 -110 64 l-73 50 0 314 0 314 192 -202 c105 -111 221 -232 256 -268 l64 -67 -28 -80 -29 -81 24 -25 c14 -14 34 -26 46 -26 27 0 61 36 70 73 8 31 12 32 39 12 27 -21 62 -19 86 5 26 26 25 42 -4 77 l-25 29 70 19 c92 23 125 68 81 108 -25 23 -63 21 -160 -7 l-82 -24 -173 182 c-95 99 -199 209 -231 244 l-59 62 254 0 254 0 44 -81 c48 -89 74 -110 116 -91 38 18 43 57 12 113 -33 58 -33 59 -2 59 25 0 75 39 75 58 0 28 -40 56 -86 61 l-49 6 58 56 c65 64 74 98 32 125 -45 29 -78 12 -167 -92 l-81 -94 -284 0 c-164 0 -283 4 -281 9 2 5 108 124 237 266 l233 256 82 -7 c44 -5 92 -7 106 -7 25 1 60 35 60 59 0 27 -39 53 -90 60 -55 7 -59 12 -30 39 40 36 14 105 -39 105 -14 0 -37 -15 -57 -37 l-34 -36 -15 36 c-8 20 -15 47 -15 60 0 54 -77 80 -112 37 -26 -32 -22 -66 16 -156 l35 -79 -33 -35 c-18 -19 -104 -114 -191 -210 -87 -96 -164 -182 -171 -190 -12 -12 -14 30 -14 270 l0 285 53 29 c115 64 142 101 99 139 -26 23 -60 21 -109 -8 l-43 -24 0 39 c0 30 -6 43 -26 59 -30 23 -30 23 -62 11z" id="svg_2" fill="#616161"/>
</g></g></svg>