<svg xmlns="http://www.w3.org/2000/svg" version="1.0" width="500" height="500" preserveAspectRatio="xMidYMid meet" style=""><rect id="backgroundrect" width="100%" height="100%" x="0" y="0" fill="none" stroke="none" style="" class=""/>


<g class="currentLayer" style=""><title>Layer 1</title>









<path d="M153.34192471718265,96.21133116071712 c-5.205050230992502,3.4102063656891457 -5.590609507362319,10.420075006272391 -0.7711185527396304,14.588105008781346 c3.0844742109585197,2.841838638074288 14.844032140237877,3.2207504564841942 114.70388472001997,3.2207504564841942 c77.111855273963,0.18945590920495256 112.19774942361619,-0.3789118184099051 115.0894439963898,-1.894559092049526 c5.39782986917741,-2.841838638074288 5.012270592807596,-10.230619097067438 -1.156677829109445,-14.967016827191253 c-5.012270592807596,-3.9785740933040032 -6.747287336471763,-3.9785740933040032 -114.3183254436502,-3.9785740933040032 c-95.81148017789906,0 -109.69161412721238,0.3789118184099051 -113.54720689091052,3.031294547279241 z" id="svg_2" class="" fill="#616161"/><path d="M125.58165681855593,133.15523345568283 c-4.8194909546226885,2.6523827288693353 -4.62671131643778,14.209193190371442 0.19277963818490754,16.86157591924078 c2.506135296403798,1.1367354552297153 48.773248460781595,1.894559092049526 136.68076347309946,1.894559092049526 c128.77679830751822,0 132.82517070940128,-0.18945590920495256 136.10242455854475,-3.599662274894099 c4.433931678252873,-4.925853639328768 2.506135296403798,-10.798986824682299 -4.62671131643778,-14.398649099576392 c-4.8194909546226885,-2.462926819664384 -24.09745477311344,-2.841838638074288 -135.33130600580512,-2.841838638074288 c-84.43748152498948,0.18945590920495256 -130.8973743275522,0.7578236368198108 -133.0179503475862,2.084015001254478 z" id="svg_3" class="" fill="#616161"/><path d="M84.90515316154047,172.37260666110802 c-4.2411520400679645,4.546941820918861 -4.048372401883057,10.420075006272391 0.19277963818490754,14.209193190371442 c3.277253849143428,3.031294547279241 18.12128598938131,3.2207504564841942 175.04391147189602,3.2207504564841942 c186.4179101248056,0 180.05618206470362,0.3789118184099051 177.35726713011493,-10.041163187862487 c-2.6989149345887053,-11.1778986430922 3.0844742109585197,-10.798986824682299 -181.02008025562822,-10.798986824682299 c-160.77821824621284,0 -168.68218341179409,0.18945590920495256 -171.5738779845677,3.4102063656891457 z" id="svg_4" class="" fill="#616161"/><path d="M87.8386194519297,419.0751015689185 c-4.079837398086803,3.9923289529130166 -3.894390243628312,9.149087183758997 0.1854471544584914,12.476027977853176 c3.152601625794349,2.6615526352753442 17.432032519098165,2.827899674980054 168.38601624830991,2.827899674980054 c179.3273983613609,0 173.20764226423069,0.3326940794094185 170.6113821018118,-8.816393104349581 c-2.5962601624188757,-9.814475342577833 2.9671544713358573,-9.481781263168417 -174.1348780365232,-9.481781263168417 c-154.66292681838155,0 -162.26626015117972,0.16634703970470913 -165.0479674680571,2.9942467146847624 z" class="" fill="#616161" id="svg_1"/><path d="M36.60925947760524,201.54881667867068 c-8.096744803766114,2.841838638074288 -6.940066974656672,14.967016827191253 1.735016743664168,18.377223192880404 c3.855592763698151,1.705103182844573 59.56890819913644,2.084015001254478 216.49153368165116,1.705103182844573 c226.1305155908965,-0.5683677276148578 218.41933006350024,-0.18945590920495256 217.0698725962059,-9.662251369452584 c-0.38555927636981524,-2.084015001254478 -3.0844742109585197,-5.494221366943624 -5.976168783732132,-7.7676922774030555 l-5.39782986917741,-3.9785740933040032 l-210.1298056215492,0 c-115.6677829109445,0 -211.6720427270284,0.5683677276148578 -213.79261874706242,1.3261913644346681 z" id="svg_5" class="" fill="#616161"/><path d="M44.351359247298205,240.85582383499514 c-5.012270592807596,2.462926819664384 -6.168948421917039,10.041163187862487 -2.31335565821889,15.156472736396207 c2.6989149345887053,3.599662274894099 5.39782986917741,3.7891181840990518 76.72629599759321,4.357485911713909 c122.2222906092314,1.1367354552297153 320.97809757787104,-1.5156472736396207 324.6409107033843,-4.357485911713909 c4.2411520400679645,-3.031294547279241 2.506135296403798,-10.420075006272391 -3.470033487328336,-14.209193190371442 c-3.855592763698151,-2.462926819664384 -29.109725365921033,-2.841838638074288 -197.9846884159,-2.841838638074288 c-128.19845939296349,0 -195.09299384312638,0.5683677276148578 -197.59912913953022,1.8945590920495265 z" id="svg_6" class="" fill="#616161"/><path d="M49.626479373702395,279.0362835434963 c-3.662813125513242,3.9785740933040032 -3.470033487328336,7.9571481866080065 0.9638981909245379,13.261913644346679 l3.662813125513242,4.546941820918861 l210.9009241742888,-0.18945590920495256 c224.97383776178708,-0.18945590920495256 222.27492282719834,-0.18945590920495256 222.27492282719834,-9.093883641837722 c0,-1.894559092049526 -2.506135296403798,-5.304765457738671 -5.39782986917741,-7.5782363681981035 l-5.39782986917741,-3.9785740933040032 l-212.05760200339827,0 c-190.85184180305845,0 -212.44316127976808,0.3789118184099051 -214.94929657617192,3.031294547279241 z" id="svg_7" class="" fill="#616161"/><path d="M29.521837955469564,312.380523563568 c-2.31335565821889,3.599662274894099 -2.506135296403798,4.925853639328768 -0.19277963818490756,9.472795460247626 l2.506135296403798,5.304765457738671 l30.84474210958521,1.5156472736396207 c16.964608160271858,0.757823636819811 112.96886797635582,1.1367354552297153 213.40705947069264,0.9472795460247629 l182.5623173611075,-0.5683677276148578 l4.2411520400679645,-4.168030002508956 c4.8194909546226885,-4.736397730123813 4.048372401883057,-8.525515914222865 -2.8916945727736127,-12.883001825936775 c-4.2411520400679645,-2.841838638074288 -24.868573325853067,-3.031294547279241 -216.2987540434663,-3.4102063656891457 l-211.4792630888435,-0.3789118184099052 l-2.6989149345887053,4.168030002508956 z" id="svg_8" class="" fill="#616161"/><path d="M62.89590104318104,348.56660222171394 c-2.8916945727736127,3.4102063656891457 -2.506135296403798,11.746266370707058 0.963898190924538,14.967016827191253 c2.31335565821889,2.462926819664384 19.470743456675663,3.031294547279241 122.02951097104645,3.7891181840990518 c65.73785662105347,0.5683677276148578 155.57316801522038,0.3789118184099052 200.10526443593403,-0.3789118184099052 c75.56961816848376,-1.3261913644346681 80.96744803766117,-1.705103182844573 84.24470188680458,-4.925853639328768 c4.2411520400679645,-4.168030002508956 2.506135296403798,-9.662251369452584 -4.048372401883057,-13.072457735141729 c-5.783389145547225,-3.031294547279241 -400.7888677864227,-3.599662274894099 -403.29500308282655,-0.3789118184099052 z" id="svg_9" class="" fill="#616161"/><path d="M56.352986424174034,384.39414507626327 c-3.662813125513242,4.357485911713909 -1.5422371054792594,12.883001825936775 3.855592763698151,15.535384554806111 c3.855592763698151,1.8945590920495263 42.79707967704947,2.2734709104594306 187.1890286775452,1.8945590920495263 c176.3933689391904,-0.3789118184099052 182.7550969992923,-0.5683677276148578 186.6106897629905,-3.9785740933040032 c5.590609507362319,-5.115309548533719 5.012270592807596,-8.14660409581296 -2.1205760200339823,-12.504090007526868 c-6.168948421917039,-3.599662274894099 -10.410100461985005,-3.7891181840990518 -189.695163973949,-3.7891181840990518 c-156.34428656796004,0 -183.91177482840175,0.3789118184099052 -185.83957121025088,2.841838638074288 z" id="svg_10" class="" fill="#616161"/></g></svg>