<svg xmlns="http://www.w3.org/2000/svg" version="1.0" width="391.000000" height="390.000000" preserveAspectRatio="xMidYMid meet"><rect id="backgroundrect" width="100%" height="100%" x="0" y="0" fill="none" stroke="none"/>


<g class="currentLayer" style=""><title>Layer 1</title><g transform="translate(0,390) scale(0.10000000149011612,-0.10000000149011612) " fill="#616161" stroke="none" id="svg_1" class="selected" fill-opacity="1">
<path d="M1322 2724 c-27 -18 -29 -55 -4 -77 16 -15 77 -17 595 -17 400 -1 582 2 597 10 28 15 26 54 -6 79 -26 21 -35 21 -593 21 -497 0 -569 -2 -589 -16z" id="svg_2" fill="#616161"/>
<path d="M1178 2529 c-25 -14 -24 -75 1 -89 13 -6 253 -10 709 -10 668 0 689 1 706 19 23 26 13 57 -24 76 -25 13 -125 15 -702 15 -438 -1 -679 -4 -690 -11z" id="svg_3" fill="#616161"/>
<path d="M967 2322 c-22 -24 -21 -55 1 -75 17 -16 94 -17 908 -17 967 0 934 -2 920 53 -14 59 16 57 -939 57 -834 0 -875 -1 -890 -18z" id="svg_4" fill="#616161"/>
<path d="M800 2168 c-42 -15 -36 -79 9 -97 20 -9 309 -11 1123 -9 1173 3 1133 1 1126 51 -2 11 -16 29 -31 41 l-28 21 -1090 0 c-600 0 -1098 -3 -1109 -7z" id="svg_5" fill="#616161"/>
<path d="M1016 1965 c-26 -13 -32 -53 -12 -80 14 -19 28 -20 398 -23 634 -6 1665 8 1684 23 22 16 13 55 -18 75 -20 13 -151 15 -1027 15 -665 0 -1012 -3 -1025 -10z" id="svg_6" fill="#616161"/>
<path d="M784 1759 c-19 -21 -18 -42 5 -70 l19 -24 1094 1 c1167 1 1153 1 1153 48 0 10 -13 28 -28 40 l-28 21 -1100 0 c-990 0 -1102 -2 -1115 -16z" id="svg_7" fill="#616161"/>
<path d="M583 1583 c-12 -19 -13 -26 -1 -50 l13 -28 160 -8 c88 -4 586 -6 1107 -5 l947 3 22 22 c25 25 21 45 -15 68 -22 15 -129 16 -1122 18 l-1097 2 -14 -22z" id="svg_8" fill="#616161"/>
<path d="M888 1392 c-15 -18 -13 -62 5 -79 12 -13 101 -16 633 -20 341 -3 807 -2 1038 2 392 7 420 9 437 26 22 22 13 51 -21 69 -30 16 -2079 19 -2092 2z" id="svg_9" fill="#616161"/>
<path d="M920 1185 c-19 -23 -8 -68 20 -82 20 -10 222 -12 971 -10 915 2 948 3 968 21 29 27 26 43 -11 66 -32 19 -54 20 -984 20 -811 0 -954 -2 -964 -15z" id="svg_10" fill="#616161"/>
</g></g></svg>